<?xml version="1.0" encoding="UTF-8"?>
<svg width="612px" height="80px" viewBox="0 0 612 80" version="1.1" xmlns="http://www.w3.org/2000/svg" xmlns:xlink="http://www.w3.org/1999/xlink">
    <title>DUETPROTOCOL 2</title>
    <g id="页面-1" stroke="none" stroke-width="1" fill="none" fill-rule="evenodd">
        <g id="DUET-PROTOCOL" transform="translate(-654.000000, -292.000000)" fill="#FFFFFF" fill-rule="nonzero">
            <g id="DUETPROTOCOL-2" transform="translate(654.000000, 292.000000)">
                <path d="M27.8353681,79.8724083 C35.7518489,79.8724083 39.7100893,76.1297182 39.7100893,68.6443381 L39.7100893,68.6443381 L39.7100893,11.2280702 C39.7100893,3.74269006 35.7518489,0 27.8353681,0 L27.8353681,0 L5.68434189e-14,0 L5.68434189e-14,79.8724083 L27.8353681,79.8724083 Z M24.2601832,70.8133971 L11.6193509,70.8133971 L11.6193509,9.05901116 L24.2601832,9.05901116 C25.7924053,9.05901116 26.8138867,9.29292929 27.3246274,9.76076555 C27.8353681,10.2286018 28.0907384,11.2280702 28.0907384,12.7591707 L28.0907384,12.7591707 L28.0907384,67.1132376 C28.0907384,68.6443381 27.8353681,69.6438065 27.3246274,70.1116427 C26.8138867,70.579479 25.7924053,70.8133971 24.2601832,70.8133971 L24.2601832,70.8133971 Z M81.3354562,79.8724083 C89.3370605,79.8724083 93.3378626,76.1297182 93.3378626,68.6443381 L93.3378626,68.6443381 L93.3378626,0 L81.7185118,0 L81.7185118,66.8580542 C81.7185118,68.3891547 81.4844223,69.3886231 81.0162433,69.8564593 C80.5480643,70.3242956 79.5053021,70.5582137 77.8879565,70.5582137 L77.8879565,70.5582137 L70.6099016,70.5582137 C69.0776795,70.5582137 68.0561981,70.3242956 67.5454574,69.8564593 C67.0347167,69.3886231 66.7793463,68.3891547 66.7793463,66.8580542 L66.7793463,66.8580542 L66.7793463,0 L55.1599954,0 L55.1599954,68.6443381 C55.1599954,76.1297182 59.1607976,79.8724083 67.1624018,79.8724083 L67.1624018,79.8724083 L81.3354562,79.8724083 Z M144.156562,79.8724083 L144.156562,70.5582137 L121.045546,70.5582137 L121.045546,43.2535885 L139.432211,43.2535885 L139.432211,33.9393939 L121.045546,33.9393939 L121.045546,9.31419458 L143.262766,9.31419458 L143.262766,0 L109.426195,0 L109.426195,79.8724083 L144.156562,79.8724083 Z M175.311745,79.8724083 L175.311745,9.31419458 L188.718688,9.31419458 L188.718688,0 L150.413136,0 L150.413136,9.31419458 L163.820079,9.31419458 L163.820079,79.8724083 L175.311745,79.8724083 Z M232.387018,79.8724083 L232.387018,48.9952153 L247.070813,48.9952153 C254.987294,48.9952153 258.945534,45.2525253 258.945534,37.7671451 L258.945534,37.7671451 L258.945534,11.2280702 C258.945534,3.74269006 254.987294,0 247.070813,0 L247.070813,0 L220.895352,0 L220.895352,79.8724083 L232.387018,79.8724083 Z M243.623313,39.8086124 L232.387018,39.8086124 L232.387018,9.31419458 L243.623313,9.31419458 C245.155535,9.31419458 246.177017,9.54811271 246.687757,10.015949 C247.198498,10.4837852 247.453868,11.4832536 247.453868,13.0143541 L247.453868,13.0143541 L247.453868,35.9808612 C247.453868,37.5119617 247.198498,38.5326954 246.687757,39.0430622 C246.177017,39.553429 245.155535,39.8086124 243.623313,39.8086124 L243.623313,39.8086124 Z M283.844143,79.8724083 L283.844143,47.5917065 L290.100717,47.5917065 L302.103123,79.8724083 L314.488585,79.8724083 L301.847753,47.3365231 C307.551024,46.4008506 310.402659,42.7006911 310.402659,36.2360447 L310.402659,36.2360447 L310.402659,11.2280702 C310.402659,3.74269006 306.444419,0 298.527938,0 L298.527938,0 L272.352477,0 L272.352477,79.8724083 L283.844143,79.8724083 Z M295.080439,38.4051037 L283.844143,38.4051037 L283.844143,9.31419458 L295.080439,9.31419458 C296.612661,9.31419458 297.634142,9.54811271 298.144883,10.015949 C298.655623,10.4837852 298.910994,11.4832536 298.910994,13.0143541 L298.910994,13.0143541 L298.910994,34.7049442 C298.910994,36.2360447 298.655623,37.235513 298.144883,37.7033493 C297.634142,38.1711855 296.612661,38.4051037 295.080439,38.4051037 L295.080439,38.4051037 Z M351.644971,79.8724083 C359.561452,79.8724083 363.519692,76.1297182 363.519692,68.6443381 L363.519692,68.6443381 L363.519692,11.2280702 C363.519692,3.74269006 359.561452,0 351.644971,0 L351.644971,0 L337.471917,0 C329.470312,0 325.46951,3.74269006 325.46951,11.2280702 L325.46951,11.2280702 L325.46951,68.6443381 C325.46951,76.1297182 329.470312,79.8724083 337.471917,79.8724083 L337.471917,79.8724083 L351.644971,79.8724083 Z M348.197471,70.5582137 L340.791731,70.5582137 C339.259509,70.5582137 338.259308,70.3242956 337.791129,69.8564593 C337.32295,69.3886231 337.088861,68.3891547 337.088861,66.8580542 L337.088861,66.8580542 L337.088861,13.0143541 C337.088861,11.4832536 337.32295,10.4837852 337.791129,10.015949 C338.259308,9.54811271 339.259509,9.31419458 340.791731,9.31419458 L340.791731,9.31419458 L348.197471,9.31419458 C349.729693,9.31419458 350.751175,9.54811271 351.261915,10.015949 C351.772656,10.4837852 352.028026,11.4832536 352.028026,13.0143541 L352.028026,13.0143541 L352.028026,66.8580542 C352.028026,68.3891547 351.772656,69.3886231 351.261915,69.8564593 C350.751175,70.3242956 349.729693,70.5582137 348.197471,70.5582137 L348.197471,70.5582137 Z M398.377745,79.8724083 L398.377745,9.31419458 L411.784688,9.31419458 L411.784688,0 L373.479136,0 L373.479136,9.31419458 L386.886079,9.31419458 L386.886079,79.8724083 L398.377745,79.8724083 Z M447.791907,79.8724083 C455.708388,79.8724083 459.666629,76.1297182 459.666629,68.6443381 L459.666629,68.6443381 L459.666629,11.2280702 C459.666629,3.74269006 455.708388,0 447.791907,0 L447.791907,0 L433.618853,0 C425.617249,0 421.616447,3.74269006 421.616447,11.2280702 L421.616447,11.2280702 L421.616447,68.6443381 C421.616447,76.1297182 425.617249,79.8724083 433.618853,79.8724083 L433.618853,79.8724083 L447.791907,79.8724083 Z M444.344408,70.5582137 L436.938668,70.5582137 C435.406445,70.5582137 434.406245,70.3242956 433.938066,69.8564593 C433.469887,69.3886231 433.235797,68.3891547 433.235797,66.8580542 L433.235797,66.8580542 L433.235797,13.0143541 C433.235797,11.4832536 433.469887,10.4837852 433.938066,10.015949 C434.406245,9.54811271 435.406445,9.31419458 436.938668,9.31419458 L436.938668,9.31419458 L444.344408,9.31419458 C445.87663,9.31419458 446.898111,9.54811271 447.408852,10.015949 C447.919593,10.4837852 448.174963,11.4832536 448.174963,13.0143541 L448.174963,13.0143541 L448.174963,66.8580542 C448.174963,68.3891547 447.919593,69.3886231 447.408852,69.8564593 C446.898111,70.3242956 445.87663,70.5582137 444.344408,70.5582137 L444.344408,70.5582137 Z M500.398199,80 C508.399804,80 512.400606,76.2147794 512.400606,68.6443381 L512.400606,68.6443381 L512.400606,55.1196172 L500.65357,55.1196172 L500.65357,67.2408293 C500.65357,68.7719298 500.41948,69.7713982 499.951301,70.2392344 C499.483122,70.7070707 498.482922,70.9409888 496.9507,70.9409888 L496.9507,70.9409888 L490.438756,70.9409888 C488.906534,70.9409888 487.885052,70.7070707 487.374312,70.2392344 C486.863571,69.7713982 486.6082,68.7719298 486.6082,67.2408293 L486.6082,67.2408293 L486.6082,12.7591707 C486.6082,11.2280702 486.863571,10.2286018 487.374312,9.76076555 C487.885052,9.29292929 488.906534,9.05901116 490.438756,9.05901116 L490.438756,9.05901116 L496.9507,9.05901116 C498.482922,9.05901116 499.483122,9.29292929 499.951301,9.76076555 C500.41948,10.2286018 500.65357,11.2280702 500.65357,12.7591707 L500.65357,12.7591707 L500.65357,25.0079745 L512.400606,25.0079745 L512.400606,11.2280702 C512.400606,3.74269006 508.399804,0 500.398199,0 L500.398199,0 L486.863571,0 C478.94709,0 474.98885,3.74269006 474.98885,11.2280702 L474.98885,11.2280702 L474.98885,68.6443381 C474.98885,76.2147794 478.94709,80 486.863571,80 L486.863571,80 L500.398199,80 Z M552.493751,79.8724083 C560.410231,79.8724083 564.368472,76.1297182 564.368472,68.6443381 L564.368472,68.6443381 L564.368472,11.2280702 C564.368472,3.74269006 560.410231,0 552.493751,0 L552.493751,0 L538.320696,0 C530.319092,0 526.31829,3.74269006 526.31829,11.2280702 L526.31829,11.2280702 L526.31829,68.6443381 C526.31829,76.1297182 530.319092,79.8724083 538.320696,79.8724083 L538.320696,79.8724083 L552.493751,79.8724083 Z M549.046251,70.5582137 L541.640511,70.5582137 C540.108289,70.5582137 539.108088,70.3242956 538.639909,69.8564593 C538.17173,69.3886231 537.937641,68.3891547 537.937641,66.8580542 L537.937641,66.8580542 L537.937641,13.0143541 C537.937641,11.4832536 538.17173,10.4837852 538.639909,10.015949 C539.108088,9.54811271 540.108289,9.31419458 541.640511,9.31419458 L541.640511,9.31419458 L549.046251,9.31419458 C550.578473,9.31419458 551.599954,9.54811271 552.110695,10.015949 C552.621436,10.4837852 552.876806,11.4832536 552.876806,13.0143541 L552.876806,13.0143541 L552.876806,66.8580542 C552.876806,68.3891547 552.621436,69.3886231 552.110695,69.8564593 C551.599954,70.3242956 550.578473,70.5582137 549.046251,70.5582137 L549.046251,70.5582137 Z M611.611986,79.8724083 L611.611986,70.5582137 L591.820784,70.5582137 L591.820784,0 L580.329119,0 L580.329119,79.8724083 L611.611986,79.8724083 Z" id="DUETPROTOCOL"></path>
            </g>
        </g>
    </g>
</svg>