<?xml version="1.0" encoding="UTF-8"?>
<svg width="120px" height="120px" viewBox="0 0 120 120" version="1.1" xmlns="http://www.w3.org/2000/svg" xmlns:xlink="http://www.w3.org/1999/xlink">
    <title>编组 6</title>
    <defs>
        <linearGradient x1="100%" y1="44.8464299%" x2="0%" y2="44.8464299%" id="linearGradient-1">
            <stop stop-color="#AF0BD9" offset="0%"></stop>
            <stop stop-color="#5574FF" offset="100%"></stop>
        </linearGradient>
    </defs>
    <g id="页面-1" stroke="none" stroke-width="1" fill="none" fill-rule="evenodd">
        <g id="DUET-PROTOCOL" transform="translate(-900.000000, -1403.000000)">
            <g id="编组" transform="translate(878.000000, 1403.000000)">
                <g id="编组-6" transform="translate(22.000000, 0.000000)">
                    <path d="M68.7354142,54.7199533 L60.3567678,54.7199533 L57.1599767,60.2569428 C57.0042937,60.5275588 56.7787516,60.751368 56.5069428,60.9049592 C56.4824387,60.9208285 56.4573512,60.9361144 56.431797,60.9508751 C55.5946324,61.434189 54.524154,61.1473746 54.0408401,60.3102684 L48.0595099,49.9502917 L46.1592765,53.2417736 C45.9246208,53.9317386 45.2711785,54.428238 44.5017503,54.428238 L37.5005834,54.428238 L37.5005834,66.5052509 C37.5005834,66.6985828 37.6573099,66.8553092 37.8506418,66.8553092 L82.4247375,66.8553092 C82.6180693,66.8553092 82.7747958,66.6985828 82.7747958,66.5052509 L82.7747958,38.8506418 C82.7747958,38.6573099 82.6180693,38.5005834 82.4247375,38.5005834 L37.8506418,38.5005834 C37.6573099,38.5005834 37.5005834,38.6573099 37.5005834,38.8506418 L37.5005834,50.9276546 L43.4531505,50.9276546 L46.4854142,45.6756126 C46.81972,45.0966161 47.4349475,44.7808635 48.0595099,44.8011669 C48.684189,44.7808635 49.2993582,45.0966161 49.6337223,45.6756709 L55.5850058,55.9836639 L57.7456243,52.2413652 C57.8061712,52.1363581 57.8774177,52.0378956 57.9582264,51.9475496 C58.276021,51.5064177 58.7941074,51.2193699 59.3792299,51.2193699 L68.549825,51.2193699 C69.1960327,48.7355893 71.453909,46.9019837 74.1400233,46.9019837 C77.3299883,46.9019837 79.915986,49.4879813 79.915986,52.6779463 C79.915986,55.8679113 77.3299883,58.453909 74.1400233,58.453909 C71.6689615,58.453909 69.5603267,56.9021587 68.7354142,54.7199533 Z M63.6566511,70.3558926 L67.7125438,81.4994166 L71.1645274,81.4994166 C72.1312135,81.4994166 72.9148191,82.2830222 72.9148191,83.2497083 C72.9148191,84.2163944 72.1312135,85 71.1645274,85 L49.1108518,85 C48.1441657,85 47.3605601,84.2163944 47.3605601,83.2497083 C47.3605601,82.2830222 48.1441657,81.4994166 49.1108518,81.4994166 L52.5628355,81.4994166 L56.6187865,70.3558926 L37.8506418,70.3558926 C35.7240373,70.3558926 34,68.6318553 34,66.5052509 L34,38.8506418 C34,36.7240373 35.7240373,35 37.8506418,35 L82.4247375,35 C84.5513419,35 86.2753792,36.7240373 86.2753792,38.8506418 L86.2753792,66.5052509 C86.2753792,68.6318553 84.5513419,70.3558926 82.4247375,70.3558926 L63.6565928,70.3558926 L63.6566511,70.3558926 Z M56.2880397,81.4994166 L63.9872229,81.4994166 L60.1376896,70.9227538 L56.2880397,81.4994166 L56.2880397,81.4994166 Z M74.1400233,54.9533256 C75.3967328,54.9533256 76.4154026,53.9346558 76.4154026,52.6779463 C76.4154026,51.4212369 75.3967328,50.4025671 74.1400233,50.4025671 C72.8833139,50.4025671 71.8646441,51.4212369 71.8646441,52.6779463 C71.8646441,53.9346558 72.8833139,54.9533256 74.1400233,54.9533256 Z" id="形状" fill="url(#linearGradient-1)" fill-rule="nonzero"></path>
                    <circle id="椭圆形" stroke="#FFFFFF" opacity="0.097048" cx="60" cy="60" r="59.5"></circle>
                </g>
            </g>
        </g>
    </g>
</svg>