<?xml version="1.0" encoding="UTF-8"?>
<svg width="120px" height="120px" viewBox="0 0 120 120" version="1.1" xmlns="http://www.w3.org/2000/svg" xmlns:xlink="http://www.w3.org/1999/xlink">
    <title>编组 7</title>
    <defs>
        <linearGradient x1="100%" y1="44.8464299%" x2="0%" y2="44.8464299%" id="linearGradient-1">
            <stop stop-color="#AF0BD9" offset="0%"></stop>
            <stop stop-color="#5574FF" offset="100%"></stop>
        </linearGradient>
    </defs>
    <g id="页面-1" stroke="none" stroke-width="1" fill="none" fill-rule="evenodd">
        <g id="DUET-PROTOCOL" transform="translate(-1373.000000, -1403.000000)">
            <g id="编组-4" transform="translate(1355.000000, 1403.000000)">
                <g id="编组-7" transform="translate(18.000000, 0.000000)">
                    <g id="编组" transform="translate(35.000000, 35.000000)" fill="url(#linearGradient-1)" fill-rule="nonzero">
                        <path d="M35,3.57142856 C35,3.96428569 35.3214286,4.28571431 35.7142857,4.28571431 L35,4.28571431 L35,3.57142856 Z M35,4.28571431 L4.28571431,4.28571431 L4.28571431,31.4285714 L35,31.4285714 L35,26.5 L39.2857143,26.5 L39.2857143,32.1428571 C39.2857143,33.0900589 38.9094399,33.9984657 38.2396671,34.6682385 C37.5698943,35.3380113 36.6614874,35.7142857 35.7142857,35.7142857 L3.57142856,35.7142857 C1.59898303,35.7142857 8.04911693e-14,34.1153027 8.04911693e-14,32.1428571 L8.04911693e-14,3.57142856 C8.04911693e-14,1.59898303 1.59898303,8.32667268e-15 3.57142856,8.32667268e-15 L35.7142857,8.32667268e-15 C36.6614874,8.32667268e-15 37.5698943,0.37627441 38.2396671,1.04604719 C38.9094399,1.71581997 39.2857143,2.62422681 39.2857143,3.57142856 L39.2857143,10.7142857 L35,10.7142857 L35,4.28571431 Z M4.28571431,4.28571431 L3.57142856,4.28571431 C3.76086893,4.28571431 3.94255031,4.21045943 4.07650487,4.07650487 C4.21045943,3.94255031 4.28571431,3.76086893 4.28571431,3.57142856 L4.28571431,4.28571431 L4.28571431,4.28571431 Z M4.28571431,31.4285714 L3.57142856,31.4285714 C3.96428569,31.4285714 4.28571431,31.75 4.28571431,32.1428571 L4.28571431,31.4285714 L4.28571431,31.4285714 Z M35,32.1428571 C35,31.75 35.3214286,31.4285714 35.7142857,31.4285714 L35,31.4285714 L35,32.1428571 Z M35.7142857,31.4285714 C35.3197966,31.4285714 35,31.748368 35,32.1428571 L35,31.4285714 L35.7142857,31.4285714 L35.7142857,31.4285714 Z M4.28571431,31.4285714 L3.57142856,31.4285714 C3.96428569,31.4285714 4.28571431,31.75 4.28571431,32.1428571 L4.28571431,31.4285714 L4.28571431,31.4285714 Z M4.28571431,4.28571431 L4.28571431,3.57142856 C4.28571431,3.76086893 4.21045943,3.94255031 4.07650487,4.07650487 C3.94255031,4.21045943 3.76086893,4.28571431 3.57142856,4.28571431 L4.28571431,4.28571431 L4.28571431,4.28571431 Z M35,3.57142856 C35,3.96428569 35.3214286,4.28571431 35.7142857,4.28571431 L35,4.28571431 L35,3.57142856 Z" id="形状"></path>
                        <path d="M15,45.7142857 L45.7142857,45.7142857 L45.7142857,18.5714286 L15,18.5714286 L15,25 L10.7142857,25 L10.7142857,17.8571429 C10.7142857,16.9099411 11.0905601,16.0015343 11.7603329,15.3317615 C12.4301057,14.6619887 13.3385126,14.2857143 14.2857143,14.2857143 L46.4285714,14.2857143 C48.401017,14.2857143 50,15.8846973 50,17.8571429 L50,46.4285714 C50,48.401017 48.401017,50 46.4285714,50 L14.2857143,50 C13.3385126,50 12.4301057,49.6237256 11.7603329,48.9539528 C11.0905601,48.28418 10.7142857,47.3757732 10.7142857,46.4285714 L10.7142857,40.7857143 L15,40.7857143 L15,45.7142857 Z" id="路径"></path>
                    </g>
                    <circle id="椭圆形" stroke="#FFFFFF" opacity="0.097048" cx="60" cy="60" r="59.5"></circle>
                </g>
            </g>
        </g>
    </g>
</svg>