<?xml version="1.0" encoding="UTF-8"?>
<svg width="120px" height="120px" viewBox="0 0 120 120" version="1.1" xmlns="http://www.w3.org/2000/svg" xmlns:xlink="http://www.w3.org/1999/xlink">
    <title>编组 5</title>
    <defs>
        <linearGradient x1="100%" y1="44.8464299%" x2="0%" y2="44.8464299%" id="linearGradient-1">
            <stop stop-color="#AF0BD9" offset="0%"></stop>
            <stop stop-color="#5574FF" offset="100%"></stop>
        </linearGradient>
        <linearGradient x1="100%" y1="44.8464299%" x2="0%" y2="44.8464299%" id="linearGradient-2">
            <stop stop-color="#AF0BD9" offset="0%"></stop>
            <stop stop-color="#5574FF" offset="100%"></stop>
        </linearGradient>
        <linearGradient x1="100%" y1="44.8464299%" x2="0%" y2="44.8464299%" id="linearGradient-3">
            <stop stop-color="#AF0BD9" offset="0%"></stop>
            <stop stop-color="#5574FF" offset="100%"></stop>
        </linearGradient>
    </defs>
    <g id="页面-1" stroke="none" stroke-width="1" fill="none" fill-rule="evenodd">
        <g id="DUET-PROTOCOL" transform="translate(-416.000000, -1403.000000)">
            <g id="编组-3" transform="translate(400.000000, 1403.000000)">
                <g id="编组-5" transform="translate(16.000000, 0.000000)">
                    <g id="编组" transform="translate(35.000000, 35.000000)" fill-rule="nonzero">
                        <path d="M11.645748,38.0646457 C0.168582677,26.5887402 -3.57062992,11.3761417 3.90275591,3.90275591 C11.3761417,-3.57062992 26.5887402,0.16984252 38.0646457,11.645748 C49.541811,23.1229134 53.2822835,38.334252 45.8088976,45.8088976 C38.334252,53.2822835 23.1216535,49.5405512 11.6444882,38.0633858 L11.645748,38.0646457 Z M14.3191339,35.3937795 C24.5112598,45.5846457 37.4951969,48.7770866 43.1355118,43.1355118 C48.7770866,37.4951969 45.5846457,24.51 35.3925197,14.3191339 C25.2003937,4.12700787 12.2164567,0.934566929 6.57488189,6.57488189 C0.935826772,12.2164567 4.12700787,25.2016535 14.3191339,35.3925197 L14.3191339,35.3937795 Z" id="形状" fill="url(#linearGradient-1)"></path>
                        <path d="M38.0646457,38.0646457 L37.6816535,38.4451181 C26.2511024,49.6237008 11.2917323,53.1991339 3.90275591,45.8088976 C-3.48748031,38.4161417 0.0879527559,23.4592913 11.2665354,12.03 L12.03,11.2665354 C23.4592913,0.0879527559 38.4174016,-3.48748031 45.8088976,3.90275591 C53.1991339,11.2929921 49.6237008,26.2523622 38.4451181,37.6816535 L38.0646457,38.0646457 Z M35.3937795,35.3937795 L35.7717323,35.0095276 C45.6614961,24.877874 48.7065354,12.1459055 43.1355118,6.57488189 C37.4964567,0.935826772 24.51,4.12700787 14.3191339,14.3191339 C4.12700787,24.5112598 0.934566929,37.4951969 6.57488189,43.1355118 C12.1459055,48.7065354 24.877874,45.6627559 35.0095276,35.7717323 L35.3925197,35.3937795 L35.3937795,35.3937795 Z" id="形状" fill="url(#linearGradient-2)"></path>
                        <path d="M23.7137795,26.7865354 L20.6750394,23.6419685 L18.3304724,26.0684252 L22.5433858,30.4274803 C22.8490839,30.7475656 23.2724268,30.928648 23.7150394,30.928648 C24.157652,30.928648 24.5809948,30.7475656 24.8866929,30.4274803 L32.6082677,22.4375591 L30.2624409,20.0098425 L23.7137795,26.7865354 Z" id="路径" fill="url(#linearGradient-3)"></path>
                    </g>
                    <circle id="椭圆形" stroke="#FFFFFF" opacity="0.097048" cx="60" cy="60" r="59.5"></circle>
                </g>
            </g>
        </g>
    </g>
</svg>