<?xml version="1.0" encoding="UTF-8"?>
<svg width="253px" height="190px" viewBox="0 0 253 190" version="1.1" xmlns="http://www.w3.org/2000/svg" xmlns:xlink="http://www.w3.org/1999/xlink">
    <title>编组 14备份 2</title>
    <defs>
        <linearGradient x1="100%" y1="44.8464299%" x2="0%" y2="44.8464299%" id="linearGradient-1">
            <stop stop-color="#AF0BD9" offset="0%"></stop>
            <stop stop-color="#5574FF" offset="100%"></stop>
        </linearGradient>
        <filter x="-5.1%" y="-39.1%" width="110.2%" height="178.2%" filterUnits="objectBoundingBox" id="filter-2">
            <feOffset dx="0" dy="2" in="SourceAlpha" result="shadowOffsetOuter1"></feOffset>
            <feGaussianBlur stdDeviation="2" in="shadowOffsetOuter1" result="shadowBlurOuter1"></feGaussianBlur>
            <feColorMatrix values="0 0 0 0 0   0 0 0 0 0   0 0 0 0 0  0 0 0 0.5 0" type="matrix" in="shadowBlurOuter1" result="shadowMatrixOuter1"></feColorMatrix>
            <feMerge>
                <feMergeNode in="shadowMatrixOuter1"></feMergeNode>
                <feMergeNode in="SourceGraphic"></feMergeNode>
            </feMerge>
        </filter>
    </defs>
    <g id="页面-1" stroke="none" stroke-width="1" fill="none" fill-rule="evenodd">
        <g id="iPhone-11-Pro" transform="translate(-249.000000, -143.000000)">
            <g id="编组-14备份-2" transform="translate(258.000000, 143.000000)">
                <g id="编组-14备份" transform="translate(0.000000, 0.000000)">
                    <g id="编组" transform="translate(87.000000, 0.000000)" fill="url(#linearGradient-1)">
                        <path d="M0,20 C11.045695,20 20,28.954305 20,40 L20,100 C8.954305,100 1.3527075e-15,91.045695 0,80 L0,20 Z M40,0 C51.045695,-2.02906125e-15 60,8.954305 60,20 L60,80 C48.954305,80 40,71.045695 40,60 L40,0 Z" id="形状结合"></path>
                    </g>
                    <g id="DUETPROTOCOL-2" filter="url(#filter-2)" transform="translate(0.000000, 150.000000)" fill="#FFFFFF" fill-rule="nonzero">
                        <path d="M10.6687641,30.6359922 C13.7029997,30.6359922 15.2201175,29.2004399 15.2201175,26.3293352 L15.2201175,26.3293352 L15.2201175,4.30665705 C15.2201175,1.43555235 13.7029997,0 10.6687641,0 L10.6687641,0 L2.7253694e-13,0 L2.7253694e-13,30.6359922 L10.6687641,30.6359922 Z M9.29846409,27.161303 L4.45347491,27.161303 L4.45347491,3.47468921 L9.29846409,3.47468921 C9.88573551,3.47468921 10.2772498,3.56441124 10.4730069,3.74385528 C10.6687641,3.92329932 10.7666426,4.30665705 10.7666426,4.89392847 L10.7666426,4.89392847 L10.7666426,25.7420638 C10.7666426,26.3293352 10.6687641,26.7126929 10.4730069,26.8921369 C10.2772498,27.071581 9.88573551,27.161303 9.29846409,27.161303 L9.29846409,27.161303 Z M31.1743244,30.6359922 C34.2411862,30.6359922 35.7746171,29.2004399 35.7746171,26.3293352 L35.7746171,26.3293352 L35.7746171,0 L31.3211422,0 L31.3211422,25.6441852 C31.3211422,26.2314566 31.2314202,26.6148143 31.0519761,26.7942584 C30.8725321,26.9737024 30.4728613,27.0634244 29.8529637,27.0634244 L29.8529637,27.0634244 L27.0634244,27.0634244 C26.476153,27.0634244 26.0846387,26.9737024 25.8888816,26.7942584 C25.6931245,26.6148143 25.5952459,26.2314566 25.5952459,25.6441852 L25.5952459,25.6441852 L25.5952459,0 L21.141771,0 L21.141771,26.3293352 C21.141771,29.2004399 22.6752019,30.6359922 25.7420638,30.6359922 L25.7420638,30.6359922 L31.1743244,30.6359922 Z M55.2524524,30.6359922 L55.2524524,27.0634244 L46.3944419,27.0634244 L46.3944419,16.5904175 L53.4416989,16.5904175 L53.4416989,13.0178497 L46.3944419,13.0178497 L46.3944419,3.57256778 L54.9098774,3.57256778 L54.9098774,0 L41.940967,0 L41.940967,30.6359922 L55.2524524,30.6359922 Z M67.1936379,30.6359922 L67.1936379,3.57256778 L72.3322628,3.57256778 L72.3322628,0 L57.6504774,0 L57.6504774,3.57256778 L62.7891023,3.57256778 L62.7891023,30.6359922 L67.1936379,30.6359922 Z M89.0694982,30.6359922 L89.0694982,18.7926853 L94.6975159,18.7926853 C97.7317515,18.7926853 99.2488694,17.357133 99.2488694,14.4860283 L99.2488694,14.4860283 L99.2488694,4.30665705 C99.2488694,1.43555235 97.7317515,0 94.6975159,0 L94.6975159,0 L84.6649625,0 L84.6649625,30.6359922 L89.0694982,30.6359922 Z M93.3761552,15.2690568 L89.0694982,15.2690568 L89.0694982,3.57256778 L93.3761552,3.57256778 C93.9634266,3.57256778 94.3549409,3.66228981 94.550698,3.84173385 C94.7464552,4.02117789 94.8443337,4.40453562 94.8443337,4.99180704 L94.8443337,4.99180704 L94.8443337,13.8008783 C94.8443337,14.3881497 94.7464552,14.779664 94.550698,14.9754211 C94.3549409,15.1711783 93.9634266,15.2690568 93.3761552,15.2690568 L93.3761552,15.2690568 Z M108.79203,30.6359922 L108.79203,18.2543532 L111.190055,18.2543532 L115.790348,30.6359922 L120.537458,30.6359922 L115.692469,18.1564746 C117.878424,17.7975865 118.971401,16.3783473 118.971401,13.8987569 L118.971401,13.8987569 L118.971401,4.30665705 C118.971401,1.43555235 117.454283,0 114.420048,0 L114.420048,0 L104.387494,0 L104.387494,30.6359922 L108.79203,30.6359922 Z M113.098687,14.7307247 L108.79203,14.7307247 L108.79203,3.57256778 L113.098687,3.57256778 C113.685958,3.57256778 114.077473,3.66228981 114.27323,3.84173385 C114.468987,4.02117789 114.566865,4.40453562 114.566865,4.99180704 L114.566865,4.99180704 L114.566865,13.3114854 C114.566865,13.8987569 114.468987,14.2821146 114.27323,14.4615586 C114.077473,14.6410027 113.685958,14.7307247 113.098687,14.7307247 L113.098687,14.7307247 Z M134.77879,30.6359922 C137.813026,30.6359922 139.330144,29.2004399 139.330144,26.3293352 L139.330144,26.3293352 L139.330144,4.30665705 C139.330144,1.43555235 137.813026,0 134.77879,0 L134.77879,0 L129.346529,0 C126.279668,0 124.746237,1.43555235 124.746237,4.30665705 L124.746237,4.30665705 L124.746237,26.3293352 C124.746237,29.2004399 126.279668,30.6359922 129.346529,30.6359922 L129.346529,30.6359922 L134.77879,30.6359922 Z M133.457429,27.0634244 L130.618951,27.0634244 C130.031679,27.0634244 129.648322,26.9737024 129.468878,26.7942584 C129.289434,26.6148143 129.199712,26.2314566 129.199712,25.6441852 L129.199712,25.6441852 L129.199712,4.99180704 C129.199712,4.40453562 129.289434,4.02117789 129.468878,3.84173385 C129.648322,3.66228981 130.031679,3.57256778 130.618951,3.57256778 L130.618951,3.57256778 L133.457429,3.57256778 C134.044701,3.57256778 134.436215,3.66228981 134.631972,3.84173385 C134.827729,4.02117789 134.925608,4.40453562 134.925608,4.99180704 L134.925608,4.99180704 L134.925608,25.6441852 C134.925608,26.2314566 134.827729,26.6148143 134.631972,26.7942584 C134.436215,26.9737024 134.044701,27.0634244 133.457429,27.0634244 L133.457429,27.0634244 Z M152.690568,30.6359922 L152.690568,3.57256778 L157.829193,3.57256778 L157.829193,0 L143.147408,0 L143.147408,3.57256778 L148.286033,3.57256778 L148.286033,30.6359922 L152.690568,30.6359922 Z M171.630071,30.6359922 C174.664307,30.6359922 176.181425,29.2004399 176.181425,26.3293352 L176.181425,26.3293352 L176.181425,4.30665705 C176.181425,1.43555235 174.664307,0 171.630071,0 L171.630071,0 L166.197811,0 C163.130949,0 161.597518,1.43555235 161.597518,4.30665705 L161.597518,4.30665705 L161.597518,26.3293352 C161.597518,29.2004399 163.130949,30.6359922 166.197811,30.6359922 L166.197811,30.6359922 L171.630071,30.6359922 Z M170.308711,27.0634244 L167.470232,27.0634244 C166.882961,27.0634244 166.499603,26.9737024 166.320159,26.7942584 C166.140715,26.6148143 166.050993,26.2314566 166.050993,25.6441852 L166.050993,25.6441852 L166.050993,4.99180704 C166.050993,4.40453562 166.140715,4.02117789 166.320159,3.84173385 C166.499603,3.66228981 166.882961,3.57256778 167.470232,3.57256778 L167.470232,3.57256778 L170.308711,3.57256778 C170.895982,3.57256778 171.287496,3.66228981 171.483254,3.84173385 C171.679011,4.02117789 171.776889,4.40453562 171.776889,4.99180704 L171.776889,4.99180704 L171.776889,25.6441852 C171.776889,26.2314566 171.679011,26.6148143 171.483254,26.7942584 C171.287496,26.9737024 170.895982,27.0634244 170.308711,27.0634244 L170.308711,27.0634244 Z M191.793057,30.6849315 C194.859919,30.6849315 196.39335,29.2330661 196.39335,26.3293352 L196.39335,26.3293352 L196.39335,21.141771 L191.890935,21.141771 L191.890935,25.791003 C191.890935,26.3782745 191.801213,26.7616322 191.621769,26.9410762 C191.442325,27.1205203 191.058967,27.2102423 190.471696,27.2102423 L190.471696,27.2102423 L187.975793,27.2102423 C187.388521,27.2102423 186.997007,27.1205203 186.80125,26.9410762 C186.605493,26.7616322 186.507614,26.3782745 186.507614,25.791003 L186.507614,25.791003 L186.507614,4.89392847 C186.507614,4.30665705 186.605493,3.92329932 186.80125,3.74385528 C186.997007,3.56441124 187.388521,3.47468921 187.975793,3.47468921 L187.975793,3.47468921 L190.471696,3.47468921 C191.058967,3.47468921 191.442325,3.56441124 191.621769,3.74385528 C191.801213,3.92329932 191.890935,4.30665705 191.890935,4.89392847 L191.890935,4.89392847 L191.890935,9.5920998 L196.39335,9.5920998 L196.39335,4.30665705 C196.39335,1.43555235 194.859919,0 191.793057,0 L191.793057,0 L186.605493,0 C183.571257,0 182.054139,1.43555235 182.054139,4.30665705 L182.054139,4.30665705 L182.054139,26.3293352 C182.054139,29.2330661 183.571257,30.6849315 186.605493,30.6849315 L186.605493,30.6849315 L191.793057,30.6849315 Z M211.760285,30.6359922 C214.794521,30.6359922 216.311638,29.2004399 216.311638,26.3293352 L216.311638,26.3293352 L216.311638,4.30665705 C216.311638,1.43555235 214.794521,0 211.760285,0 L211.760285,0 L206.328024,0 C203.261162,0 201.727732,1.43555235 201.727732,4.30665705 L201.727732,4.30665705 L201.727732,26.3293352 C201.727732,29.2004399 203.261162,30.6359922 206.328024,30.6359922 L206.328024,30.6359922 L211.760285,30.6359922 Z M210.438924,27.0634244 L207.600446,27.0634244 C207.013174,27.0634244 206.629817,26.9737024 206.450373,26.7942584 C206.270928,26.6148143 206.181206,26.2314566 206.181206,25.6441852 L206.181206,25.6441852 L206.181206,4.99180704 C206.181206,4.40453562 206.270928,4.02117789 206.450373,3.84173385 C206.629817,3.66228981 207.013174,3.57256778 207.600446,3.57256778 L207.600446,3.57256778 L210.438924,3.57256778 C211.026196,3.57256778 211.41771,3.66228981 211.613467,3.84173385 C211.809224,4.02117789 211.907103,4.40453562 211.907103,4.99180704 L211.907103,4.99180704 L211.907103,25.6441852 C211.907103,26.2314566 211.809224,26.6148143 211.613467,26.7942584 C211.41771,26.9737024 211.026196,27.0634244 210.438924,27.0634244 L210.438924,27.0634244 Z M234.419174,30.6359922 L234.419174,27.0634244 L226.833585,27.0634244 L226.833585,0 L222.429049,0 L222.429049,30.6359922 L234.419174,30.6359922 Z" id="DUETPROTOCOL"></path>
                    </g>
                </g>
            </g>
        </g>
    </g>
</svg>