<?xml version="1.0" encoding="UTF-8"?>
<svg width="177px" height="32px" viewBox="0 0 177 32" version="1.1" xmlns="http://www.w3.org/2000/svg" xmlns:xlink="http://www.w3.org/1999/xlink">
    <title>编组 14备份 2</title>
    <defs>
        <linearGradient x1="100%" y1="44.8464299%" x2="0%" y2="44.8464299%" id="linearGradient-1">
            <stop stop-color="#AF0BD9" offset="0%"></stop>
            <stop stop-color="#5574FF" offset="100%"></stop>
        </linearGradient>
    </defs>
    <g id="页面-1" stroke="none" stroke-width="1" fill="none" fill-rule="evenodd">
        <g id="DUET-PROTOCOL" transform="translate(-320.000000, -24.000000)">
            <g id="编组-14备份" transform="translate(320.000000, 24.000000)">
                <g id="编组" fill="url(#linearGradient-1)">
                    <path d="M0,6.4 C3.5346224,6.4 6.4,9.2653776 6.4,12.8 L6.4,32 C2.8653776,32 3.09740166e-15,29.1346224 0,25.6 L0,6.4 Z M12.8,0 C16.3346224,-6.49299601e-16 19.2,2.8653776 19.2,6.4 L19.2,25.6 C15.6653776,25.6 12.8,22.7346224 12.8,19.2 L12.8,0 Z" id="形状结合"></path>
                </g>
                <g id="DUETPROTOCOL-2" transform="translate(39.000000, 7.000000)" fill="#FFFFFF" fill-rule="nonzero">
                    <path d="M6.25837321,17.9712919 C8.03827751,17.9712919 8.92822967,17.1291866 8.92822967,15.4449761 L8.92822967,15.4449761 L8.92822967,2.52631579 C8.92822967,0.842105263 8.03827751,0 6.25837321,0 L6.25837321,0 L1.59872116e-13,0 L1.59872116e-13,17.9712919 L6.25837321,17.9712919 Z M5.45454545,15.9330144 L2.61244019,15.9330144 L2.61244019,2.03827751 L5.45454545,2.03827751 C5.79904306,2.03827751 6.02870813,2.09090909 6.14354067,2.19617225 C6.25837321,2.30143541 6.31578947,2.52631579 6.31578947,2.8708134 L6.31578947,2.8708134 L6.31578947,15.1004785 C6.31578947,15.4449761 6.25837321,15.6698565 6.14354067,15.7751196 C6.02870813,15.8803828 5.79904306,15.9330144 5.45454545,15.9330144 L5.45454545,15.9330144 Z M18.2870813,17.9712919 C20.0861244,17.9712919 20.9856459,17.1291866 20.9856459,15.4449761 L20.9856459,15.4449761 L20.9856459,0 L18.3732057,0 L18.3732057,15.0430622 C18.3732057,15.3875598 18.3205742,15.6124402 18.215311,15.7177033 C18.1100478,15.8229665 17.8755981,15.8755981 17.5119617,15.8755981 L17.5119617,15.8755981 L15.8755981,15.8755981 C15.5311005,15.8755981 15.3014354,15.8229665 15.1866029,15.7177033 C15.0717703,15.6124402 15.0143541,15.3875598 15.0143541,15.0430622 L15.0143541,15.0430622 L15.0143541,0 L12.4019139,0 L12.4019139,15.4449761 C12.4019139,17.1291866 13.3014354,17.9712919 15.1004785,17.9712919 L15.1004785,17.9712919 L18.2870813,17.9712919 Z M32.4114833,17.9712919 L32.4114833,15.8755981 L27.215311,15.8755981 L27.215311,9.73205742 L31.3492823,9.73205742 L31.3492823,7.63636364 L27.215311,7.63636364 L27.215311,2.09569378 L32.2105263,2.09569378 L32.2105263,0 L24.6028708,0 L24.6028708,17.9712919 L32.4114833,17.9712919 Z M39.4162679,17.9712919 L39.4162679,2.09569378 L42.430622,2.09569378 L42.430622,0 L33.8181818,0 L33.8181818,2.09569378 L36.8325359,2.09569378 L36.8325359,17.9712919 L39.4162679,17.9712919 Z M52.2488038,17.9712919 L52.2488038,11.0239234 L55.5502392,11.0239234 C57.3301435,11.0239234 58.2200957,10.1818182 58.2200957,8.49760766 L58.2200957,8.49760766 L58.2200957,2.52631579 C58.2200957,0.842105263 57.3301435,0 55.5502392,0 L55.5502392,0 L49.6650718,0 L49.6650718,17.9712919 L52.2488038,17.9712919 Z M54.7751196,8.9569378 L52.2488038,8.9569378 L52.2488038,2.09569378 L54.7751196,2.09569378 C55.1196172,2.09569378 55.3492823,2.14832536 55.4641148,2.25358852 C55.5789474,2.35885167 55.6363636,2.58373206 55.6363636,2.92822967 L55.6363636,2.92822967 L55.6363636,8.09569378 C55.6363636,8.44019139 55.5789474,8.66985646 55.4641148,8.784689 C55.3492823,8.89952153 55.1196172,8.9569378 54.7751196,8.9569378 L54.7751196,8.9569378 Z M63.8181818,17.9712919 L63.8181818,10.708134 L65.2248804,10.708134 L67.923445,17.9712919 L70.708134,17.9712919 L67.8660287,10.6507177 C69.1483254,10.4401914 69.7894737,9.6076555 69.7894737,8.15311005 L69.7894737,8.15311005 L69.7894737,2.52631579 C69.7894737,0.842105263 68.8995215,0 67.1196172,0 L67.1196172,0 L61.2344498,0 L61.2344498,17.9712919 L63.8181818,17.9712919 Z M66.3444976,8.64114833 L63.8181818,8.64114833 L63.8181818,2.09569378 L66.3444976,2.09569378 C66.6889952,2.09569378 66.9186603,2.14832536 67.0334928,2.25358852 C67.1483254,2.35885167 67.2057416,2.58373206 67.2057416,2.92822967 L67.2057416,2.92822967 L67.2057416,7.80861244 C67.2057416,8.15311005 67.1483254,8.37799043 67.0334928,8.48325359 C66.9186603,8.58851675 66.6889952,8.64114833 66.3444976,8.64114833 L66.3444976,8.64114833 Z M79.062201,17.9712919 C80.8421053,17.9712919 81.7320574,17.1291866 81.7320574,15.4449761 L81.7320574,15.4449761 L81.7320574,2.52631579 C81.7320574,0.842105263 80.8421053,0 79.062201,0 L79.062201,0 L75.8755981,0 C74.076555,0 73.1770335,0.842105263 73.1770335,2.52631579 L73.1770335,2.52631579 L73.1770335,15.4449761 C73.1770335,17.1291866 74.076555,17.9712919 75.8755981,17.9712919 L75.8755981,17.9712919 L79.062201,17.9712919 Z M78.2870813,15.8755981 L76.6220096,15.8755981 C76.277512,15.8755981 76.0526316,15.8229665 75.9473684,15.7177033 C75.8421053,15.6124402 75.7894737,15.3875598 75.7894737,15.0430622 L75.7894737,15.0430622 L75.7894737,2.92822967 C75.7894737,2.58373206 75.8421053,2.35885167 75.9473684,2.25358852 C76.0526316,2.14832536 76.277512,2.09569378 76.6220096,2.09569378 L76.6220096,2.09569378 L78.2870813,2.09569378 C78.6315789,2.09569378 78.861244,2.14832536 78.9760766,2.25358852 C79.0909091,2.35885167 79.1483254,2.58373206 79.1483254,2.92822967 L79.1483254,2.92822967 L79.1483254,15.0430622 C79.1483254,15.3875598 79.0909091,15.6124402 78.9760766,15.7177033 C78.861244,15.8229665 78.6315789,15.8755981 78.2870813,15.8755981 L78.2870813,15.8755981 Z M89.569378,17.9712919 L89.569378,2.09569378 L92.5837321,2.09569378 L92.5837321,0 L83.9712919,0 L83.9712919,2.09569378 L86.9856459,2.09569378 L86.9856459,17.9712919 L89.569378,17.9712919 Z M100.679426,17.9712919 C102.45933,17.9712919 103.349282,17.1291866 103.349282,15.4449761 L103.349282,15.4449761 L103.349282,2.52631579 C103.349282,0.842105263 102.45933,0 100.679426,0 L100.679426,0 L97.492823,0 C95.6937799,0 94.7942584,0.842105263 94.7942584,2.52631579 L94.7942584,2.52631579 L94.7942584,15.4449761 C94.7942584,17.1291866 95.6937799,17.9712919 97.492823,17.9712919 L97.492823,17.9712919 L100.679426,17.9712919 Z M99.9043062,15.8755981 L98.2392344,15.8755981 C97.8947368,15.8755981 97.6698565,15.8229665 97.5645933,15.7177033 C97.4593301,15.6124402 97.4066986,15.3875598 97.4066986,15.0430622 L97.4066986,15.0430622 L97.4066986,2.92822967 C97.4066986,2.58373206 97.4593301,2.35885167 97.5645933,2.25358852 C97.6698565,2.14832536 97.8947368,2.09569378 98.2392344,2.09569378 L98.2392344,2.09569378 L99.9043062,2.09569378 C100.248804,2.09569378 100.478469,2.14832536 100.593301,2.25358852 C100.708134,2.35885167 100.76555,2.58373206 100.76555,2.92822967 L100.76555,2.92822967 L100.76555,15.0430622 C100.76555,15.3875598 100.708134,15.6124402 100.593301,15.7177033 C100.478469,15.8229665 100.248804,15.8755981 99.9043062,15.8755981 L99.9043062,15.8755981 Z M112.507177,18 C114.30622,18 115.205742,17.1483254 115.205742,15.4449761 L115.205742,15.4449761 L115.205742,12.4019139 L112.564593,12.4019139 L112.564593,15.1291866 C112.564593,15.4736842 112.511962,15.6985646 112.406699,15.8038278 C112.301435,15.9090909 112.076555,15.9617225 111.732057,15.9617225 L111.732057,15.9617225 L110.267943,15.9617225 C109.923445,15.9617225 109.69378,15.9090909 109.578947,15.8038278 C109.464115,15.6985646 109.406699,15.4736842 109.406699,15.1291866 L109.406699,15.1291866 L109.406699,2.8708134 C109.406699,2.52631579 109.464115,2.30143541 109.578947,2.19617225 C109.69378,2.09090909 109.923445,2.03827751 110.267943,2.03827751 L110.267943,2.03827751 L111.732057,2.03827751 C112.076555,2.03827751 112.301435,2.09090909 112.406699,2.19617225 C112.511962,2.30143541 112.564593,2.52631579 112.564593,2.8708134 L112.564593,2.8708134 L112.564593,5.62679426 L115.205742,5.62679426 L115.205742,2.52631579 C115.205742,0.842105263 114.30622,0 112.507177,0 L112.507177,0 L109.464115,0 C107.684211,0 106.794258,0.842105263 106.794258,2.52631579 L106.794258,2.52631579 L106.794258,15.4449761 C106.794258,17.1483254 107.684211,18 109.464115,18 L109.464115,18 L112.507177,18 Z M124.220096,17.9712919 C126,17.9712919 126.889952,17.1291866 126.889952,15.4449761 L126.889952,15.4449761 L126.889952,2.52631579 C126.889952,0.842105263 126,0 124.220096,0 L124.220096,0 L121.033493,0 C119.23445,0 118.334928,0.842105263 118.334928,2.52631579 L118.334928,2.52631579 L118.334928,15.4449761 C118.334928,17.1291866 119.23445,17.9712919 121.033493,17.9712919 L121.033493,17.9712919 L124.220096,17.9712919 Z M123.444976,15.8755981 L121.779904,15.8755981 C121.435407,15.8755981 121.210526,15.8229665 121.105263,15.7177033 C121,15.6124402 120.947368,15.3875598 120.947368,15.0430622 L120.947368,15.0430622 L120.947368,2.92822967 C120.947368,2.58373206 121,2.35885167 121.105263,2.25358852 C121.210526,2.14832536 121.435407,2.09569378 121.779904,2.09569378 L121.779904,2.09569378 L123.444976,2.09569378 C123.789474,2.09569378 124.019139,2.14832536 124.133971,2.25358852 C124.248804,2.35885167 124.30622,2.58373206 124.30622,2.92822967 L124.30622,2.92822967 L124.30622,15.0430622 C124.30622,15.3875598 124.248804,15.6124402 124.133971,15.7177033 C124.019139,15.8229665 123.789474,15.8755981 123.444976,15.8755981 L123.444976,15.8755981 Z M137.511962,17.9712919 L137.511962,15.8755981 L133.062201,15.8755981 L133.062201,0 L130.478469,0 L130.478469,17.9712919 L137.511962,17.9712919 Z" id="DUETPROTOCOL"></path>
                </g>
            </g>
        </g>
    </g>
</svg>