<?xml version="1.0" encoding="UTF-8"?>
<svg width="154px" height="80px" viewBox="0 0 154 80" version="1.1" xmlns="http://www.w3.org/2000/svg" xmlns:xlink="http://www.w3.org/1999/xlink">
    <title>编组 14</title>
    <defs>
        <linearGradient x1="100%" y1="44.8464299%" x2="0%" y2="44.8464299%" id="linearGradient-1">
            <stop stop-color="#AF0BD9" offset="0%"></stop>
            <stop stop-color="#5574FF" offset="100%"></stop>
        </linearGradient>
    </defs>
    <g id="页面-1" stroke="none" stroke-width="1" fill="none" fill-rule="evenodd">
        <g id="DUET-PROTOCOL" transform="translate(-883.000000, -40.000000)">
            <g id="编组-14" transform="translate(883.000000, 40.000000)">
                <g id="编组" transform="translate(65.000000, 0.000000)" fill="url(#linearGradient-1)">
                    <path d="M0,8 C4.418278,8 8,11.581722 8,16 L8,40 C3.581722,40 5.41083001e-16,36.418278 0,32 L0,8 Z M16,0 C20.418278,-8.11624501e-16 24,3.581722 24,8 L24,32 C19.581722,32 16,28.418278 16,24 L16,0 Z" id="形状结合"></path>
                </g>
                <g id="DUETPROTOCOL-2" transform="translate(0.000000, 60.000000)" fill="#FFFFFF" fill-rule="nonzero">
                    <path d="M6.95374801,19.9681021 C8.93141946,19.9681021 9.92025518,19.0324296 9.92025518,17.1610845 L9.92025518,17.1610845 L9.92025518,2.80701754 C9.92025518,0.935672515 8.93141946,0 6.95374801,0 L6.95374801,0 L1.42108547e-13,0 L1.42108547e-13,19.9681021 L6.95374801,19.9681021 Z M6.06060606,17.7033493 L2.90271132,17.7033493 L2.90271132,2.26475279 L6.06060606,2.26475279 C6.44338118,2.26475279 6.69856459,2.32323232 6.8261563,2.44019139 C6.95374801,2.55715045 7.01754386,2.80701754 7.01754386,3.18979266 L7.01754386,3.18979266 L7.01754386,16.7783094 C7.01754386,17.1610845 6.95374801,17.4109516 6.8261563,17.5279107 C6.69856459,17.6448698 6.44338118,17.7033493 6.06060606,17.7033493 L6.06060606,17.7033493 Z M20.3189793,19.9681021 C22.317916,19.9681021 23.3173844,19.0324296 23.3173844,17.1610845 L23.3173844,17.1610845 L23.3173844,0 L20.414673,0 L20.414673,16.7145136 C20.414673,17.0972887 20.3561935,17.3471558 20.2392344,17.4641148 C20.1222754,17.5810739 19.8617757,17.6395534 19.4577352,17.6395534 L19.4577352,17.6395534 L17.6395534,17.6395534 C17.2567783,17.6395534 17.0015949,17.5810739 16.8740032,17.4641148 C16.7464115,17.3471558 16.6826156,17.0972887 16.6826156,16.7145136 L16.6826156,16.7145136 L16.6826156,0 L13.7799043,0 L13.7799043,17.1610845 C13.7799043,19.0324296 14.7793727,19.9681021 16.7783094,19.9681021 L16.7783094,19.9681021 L20.3189793,19.9681021 Z M36.0127592,19.9681021 L36.0127592,17.6395534 L30.2392344,17.6395534 L30.2392344,10.8133971 L34.8325359,10.8133971 L34.8325359,8.48484848 L30.2392344,8.48484848 L30.2392344,2.32854864 L35.7894737,2.32854864 L35.7894737,0 L27.3365231,0 L27.3365231,19.9681021 L36.0127592,19.9681021 Z M43.7958533,19.9681021 L43.7958533,2.32854864 L47.1451356,2.32854864 L47.1451356,0 L37.5757576,0 L37.5757576,2.32854864 L40.9250399,2.32854864 L40.9250399,19.9681021 L43.7958533,19.9681021 Z M58.0542265,19.9681021 L58.0542265,12.2488038 L61.722488,12.2488038 C63.7001595,12.2488038 64.6889952,11.3131313 64.6889952,9.44178628 L64.6889952,9.44178628 L64.6889952,2.80701754 C64.6889952,0.935672515 63.7001595,0 61.722488,0 L61.722488,0 L55.1834131,0 L55.1834131,19.9681021 L58.0542265,19.9681021 Z M60.861244,9.95215311 L58.0542265,9.95215311 L58.0542265,2.32854864 L60.861244,2.32854864 C61.2440191,2.32854864 61.4992026,2.38702818 61.6267943,2.50398724 C61.754386,2.62094631 61.8181818,2.8708134 61.8181818,3.25358852 L61.8181818,3.25358852 L61.8181818,8.99521531 C61.8181818,9.37799043 61.754386,9.63317384 61.6267943,9.76076555 C61.4992026,9.88835726 61.2440191,9.95215311 60.861244,9.95215311 L60.861244,9.95215311 Z M70.9090909,19.9681021 L70.9090909,11.8979266 L72.4720893,11.8979266 L75.4704944,19.9681021 L78.5645933,19.9681021 L75.4066986,11.8341308 C76.8314726,11.6002127 77.5438596,10.6751728 77.5438596,9.05901116 L77.5438596,9.05901116 L77.5438596,2.80701754 C77.5438596,0.935672515 76.5550239,0 74.5773525,0 L74.5773525,0 L68.0382775,0 L68.0382775,19.9681021 L70.9090909,19.9681021 Z M73.7161085,9.60127592 L70.9090909,9.60127592 L70.9090909,2.32854864 L73.7161085,2.32854864 C74.0988836,2.32854864 74.354067,2.38702818 74.4816587,2.50398724 C74.6092504,2.62094631 74.6730463,2.8708134 74.6730463,3.25358852 L74.6730463,3.25358852 L74.6730463,8.67623604 C74.6730463,9.05901116 74.6092504,9.30887826 74.4816587,9.42583732 C74.354067,9.54279638 74.0988836,9.60127592 73.7161085,9.60127592 L73.7161085,9.60127592 Z M87.84689,19.9681021 C89.8245614,19.9681021 90.8133971,19.0324296 90.8133971,17.1610845 L90.8133971,17.1610845 L90.8133971,2.80701754 C90.8133971,0.935672515 89.8245614,0 87.84689,0 L87.84689,0 L84.3062201,0 C82.3072834,0 81.307815,0.935672515 81.307815,2.80701754 L81.307815,2.80701754 L81.307815,17.1610845 C81.307815,19.0324296 82.3072834,19.9681021 84.3062201,19.9681021 L84.3062201,19.9681021 L87.84689,19.9681021 Z M86.9856459,17.6395534 L85.1355662,17.6395534 C84.7527911,17.6395534 84.502924,17.5810739 84.3859649,17.4641148 C84.2690058,17.3471558 84.2105263,17.0972887 84.2105263,16.7145136 L84.2105263,16.7145136 L84.2105263,3.25358852 C84.2105263,2.8708134 84.2690058,2.62094631 84.3859649,2.50398724 C84.502924,2.38702818 84.7527911,2.32854864 85.1355662,2.32854864 L85.1355662,2.32854864 L86.9856459,2.32854864 C87.3684211,2.32854864 87.6236045,2.38702818 87.7511962,2.50398724 C87.8787879,2.62094631 87.9425837,2.8708134 87.9425837,3.25358852 L87.9425837,3.25358852 L87.9425837,16.7145136 C87.9425837,17.0972887 87.8787879,17.3471558 87.7511962,17.4641148 C87.6236045,17.5810739 87.3684211,17.6395534 86.9856459,17.6395534 L86.9856459,17.6395534 Z M99.5215311,19.9681021 L99.5215311,2.32854864 L102.870813,2.32854864 L102.870813,0 L93.3014354,0 L93.3014354,2.32854864 L96.6507177,2.32854864 L96.6507177,19.9681021 L99.5215311,19.9681021 Z M111.866029,19.9681021 C113.8437,19.9681021 114.832536,19.0324296 114.832536,17.1610845 L114.832536,17.1610845 L114.832536,2.80701754 C114.832536,0.935672515 113.8437,0 111.866029,0 L111.866029,0 L108.325359,0 C106.326422,0 105.326954,0.935672515 105.326954,2.80701754 L105.326954,2.80701754 L105.326954,17.1610845 C105.326954,19.0324296 106.326422,19.9681021 108.325359,19.9681021 L108.325359,19.9681021 L111.866029,19.9681021 Z M111.004785,17.6395534 L109.154705,17.6395534 C108.77193,17.6395534 108.522063,17.5810739 108.405104,17.4641148 C108.288145,17.3471558 108.229665,17.0972887 108.229665,16.7145136 L108.229665,16.7145136 L108.229665,3.25358852 C108.229665,2.8708134 108.288145,2.62094631 108.405104,2.50398724 C108.522063,2.38702818 108.77193,2.32854864 109.154705,2.32854864 L109.154705,2.32854864 L111.004785,2.32854864 C111.38756,2.32854864 111.642743,2.38702818 111.770335,2.50398724 C111.897927,2.62094631 111.961722,2.8708134 111.961722,3.25358852 L111.961722,3.25358852 L111.961722,16.7145136 C111.961722,17.0972887 111.897927,17.3471558 111.770335,17.4641148 C111.642743,17.5810739 111.38756,17.6395534 111.004785,17.6395534 L111.004785,17.6395534 Z M125.007974,20 C127.006911,20 128.00638,19.0536948 128.00638,17.1610845 L128.00638,17.1610845 L128.00638,13.7799043 L125.07177,13.7799043 L125.07177,16.8102073 C125.07177,17.1929825 125.013291,17.4428495 124.896332,17.5598086 C124.779373,17.6767677 124.529506,17.7352472 124.14673,17.7352472 L124.14673,17.7352472 L122.519936,17.7352472 C122.137161,17.7352472 121.881978,17.6767677 121.754386,17.5598086 C121.626794,17.4428495 121.562998,17.1929825 121.562998,16.8102073 L121.562998,16.8102073 L121.562998,3.18979266 C121.562998,2.80701754 121.626794,2.55715045 121.754386,2.44019139 C121.881978,2.32323232 122.137161,2.26475279 122.519936,2.26475279 L122.519936,2.26475279 L124.14673,2.26475279 C124.529506,2.26475279 124.779373,2.32323232 124.896332,2.44019139 C125.013291,2.55715045 125.07177,2.80701754 125.07177,3.18979266 L125.07177,3.18979266 L125.07177,6.25199362 L128.00638,6.25199362 L128.00638,2.80701754 C128.00638,0.935672515 127.006911,0 125.007974,0 L125.007974,0 L121.626794,0 C119.649123,0 118.660287,0.935672515 118.660287,2.80701754 L118.660287,2.80701754 L118.660287,17.1610845 C118.660287,19.0536948 119.649123,20 121.626794,20 L121.626794,20 L125.007974,20 Z M138.022329,19.9681021 C140,19.9681021 140.988836,19.0324296 140.988836,17.1610845 L140.988836,17.1610845 L140.988836,2.80701754 C140.988836,0.935672515 140,0 138.022329,0 L138.022329,0 L134.481659,0 C132.482722,0 131.483254,0.935672515 131.483254,2.80701754 L131.483254,2.80701754 L131.483254,17.1610845 C131.483254,19.0324296 132.482722,19.9681021 134.481659,19.9681021 L134.481659,19.9681021 L138.022329,19.9681021 Z M137.161085,17.6395534 L135.311005,17.6395534 C134.92823,17.6395534 134.678363,17.5810739 134.561404,17.4641148 C134.444444,17.3471558 134.385965,17.0972887 134.385965,16.7145136 L134.385965,16.7145136 L134.385965,3.25358852 C134.385965,2.8708134 134.444444,2.62094631 134.561404,2.50398724 C134.678363,2.38702818 134.92823,2.32854864 135.311005,2.32854864 L135.311005,2.32854864 L137.161085,2.32854864 C137.54386,2.32854864 137.799043,2.38702818 137.926635,2.50398724 C138.054226,2.62094631 138.118022,2.8708134 138.118022,3.25358852 L138.118022,3.25358852 L138.118022,16.7145136 C138.118022,17.0972887 138.054226,17.3471558 137.926635,17.4641148 C137.799043,17.5810739 137.54386,17.6395534 137.161085,17.6395534 L137.161085,17.6395534 Z M152.791069,19.9681021 L152.791069,17.6395534 L147.84689,17.6395534 L147.84689,0 L144.976077,0 L144.976077,19.9681021 L152.791069,19.9681021 Z" id="DUETPROTOCOL"></path>
                </g>
            </g>
        </g>
    </g>
</svg>