<?xml version="1.0" encoding="UTF-8"?>
<svg width="1921px" height="642px" viewBox="0 0 1921 642" version="1.1" xmlns="http://www.w3.org/2000/svg" xmlns:xlink="http://www.w3.org/1999/xlink">
    <title>资源 1</title>
    <g id="页面-1" stroke="none" stroke-width="1" fill="none" fill-rule="evenodd" opacity="0.603128" stroke-dasharray="0.2" stroke-linecap="round" stroke-linejoin="round">
        <g id="DUET-PROTOCOL" transform="translate(1.000000, -239.000000)" stroke-width="0.75">
            <g id="资源-1" transform="translate(0.000000, 240.000000)">
                <path d="M1919,132.185752 C1918.80257,142.118763 1816.69283,136.40334 1637.98105,105.185307 C1554.11365,90.5222915 1445.1729,79.0914461 1334.25788,104.712307 C1212.20791,133.250003 1089.80258,205.697913 959.500129,288 C829.987389,206.21033 706.239545,136.40334 584.74238,110.90073 C473.432498,87.6054551 365.04455,101.283053 281.019211,115.827818 C103.33405,146.651684 0.197685064,145.587433 -2.27373675e-13,135.851506 C-0.19717085,126.115579 113.323904,108.25981 281.019211,51.7362506 C368.124426,22.5284698 478.960481,-4.393142 587.348429,23.3168039 C711.5701,55.4414212 831.211442,153.589025 959.500129,273.218734 C1088.6575,152.32769 1206.83787,50.593166 1331.65183,14.4086279 C1439.09212,-16.6123216 1551.31017,7.74720415 1637.98105,37.6644857 C1807.37423,96.1588808 1918.76309,122.173908 1919,132.185752 Z" id="路径" stroke="#F60C86"></path>
                <path d="M1643.04808,106.888093 C1560.56152,92.6427197 1451.42181,81.5936766 1339.7155,107.992997 C1218.37456,136.602127 1095.80956,208.302524 966.058081,289 C836.661975,207.868455 712.991361,137.470266 591.33454,110.36065 C479.746687,89.3674677 371.199267,104.48098 286.50148,119.357728 C109.9984,149.979361 6.66315196,148.637692 5.04421991,138.57517 C2.47762031,128.039119 111.854249,110.281728 276.827374,54.3656776 C362.512314,25.2830177 473.231472,-1.27414664 582.72656,26.5457655 C706.318202,58.11446 825.763798,155.267118 953.896347,272.702661 C1082.93708,153.254613 1201.23758,51.9191037 1326.13226,14.9442702 C1433.92944,-14.2567723 1546.30702,10.9981834 1633.53192,40.8305998 C1801.97983,98.8775369 1913.37025,124.329797 1914.94969,133.918788 C1917.55578,143.192092 1818.80092,137.509727 1643.04808,106.888093 Z" id="路径" stroke="#F20C88"></path>
                <path d="M1647.14201,109.749807 C1566.03794,95.8834565 1456.85939,85.4540644 1344.20607,112.396661 C1223.41866,141.077489 1101.01232,212.068464 971.656464,291 C842.340092,210.527759 718.63072,139.497278 596.974615,110.81645 C485.111018,92.1699609 376.366808,108.64366 291.037745,123.813685 C115.680797,154.548787 12.2276991,152.692039 9.18728367,142.302152 C3.93565696,130.845623 109.56048,113.186766 271.768619,57.9583944 C356.031562,29.1590504 466.592124,3.04606491 577.271144,30.9367877 C700.151312,62.5410061 819.438261,158.143767 947.175196,273.341143 C1076.05722,155.299387 1194.47548,54.4029198 1319.4484,16.5568683 C1427.63981,-10.8202859 1540.17467,15.213689 1627.99134,45.1191807 C1795.45111,102.678363 1906.80139,127.52718 1909.76283,136.731909 C1915.40932,145.423069 1820.01135,139.694804 1647.14201,109.749807 Z" id="路径" stroke="#EF0C8A"></path>
                <path d="M1652.07792,112.178772 C1572.37074,98.7345629 1463.13359,88.9569561 1349.55381,116.397336 C1229.38111,145.020492 1107.195,214.961921 978.218587,292 C848.96582,212.438667 725.555879,141.038483 603.646122,110.838294 C491.527045,94.5554245 382.566252,112.415327 296.621453,127.830828 C122.442099,158.504127 18.8898669,156.178003 14.428791,145.454176 C6.53308138,133.389871 108.308778,115.648246 267.762634,61.3194467 C350.667585,32.8934205 461.20752,7.22720276 572.773897,35.1406931 C695.157396,66.2082501 814.066783,160.396567 941.503537,273.036174 C1070.24308,156.808816 1188.67873,56.6277725 1313.70729,18.1875845 C1422.2733,-7.28150407 1534.78716,19.4886371 1623.33754,49.2945674 C1789.81858,106.225471 1901.10861,130.511785 1905.45125,139.185468 C1914.01809,147.110061 1821.95412,141.393315 1652.07792,112.178772 Z" id="路径" stroke="#EB0C8B"></path>
                <path d="M1656.7957,115.174518 C1578.40827,102.119548 1469.13975,92.9297958 1354.54009,120.932904 C1234.92522,149.606509 1112.86197,218.904341 984.243402,294 C855.032485,215.118005 731.508113,143.177626 609.602826,111.388183 C497.175112,97.4655105 388.025059,116.712717 301.581692,132.449675 C128.458019,163.055889 24.7575703,160.295019 18.8340869,149.290981 C7.85589782,136.433216 106.106742,118.527003 262.842111,65.0844517 C344.270262,37.0024616 454.447052,11.7602233 567.546094,39.6450084 C689.135462,70.4089863 808.079007,163.253094 935.23645,273.609004 C1063.89451,158.954025 1182.48264,59.3655071 1307.6261,19.9245098 C1416.53922,-3.74008861 1529.44081,23.8686095 1618.45102,53.6860035 C1784.03212,110.08663 1895.27514,133.672346 1901.00117,142.033837 C1912.53222,149.409304 1823.79844,143.7298 1656.7957,115.174518 Z" id="路径" stroke="#E80C8D"></path>
                <path d="M1661.41649,119.121132 C1584.41067,106.449335 1475.10188,97.8830426 1359.55365,126.463668 C1240.49079,155.123246 1118.66362,223.732539 990.360065,297 C861.227214,218.837515 737.899419,146.280622 615.756328,112.9234 C503.051388,101.317455 393.742602,121.963404 306.39035,137.990661 C134.450157,168.584563 30.5910144,165.623863 23.2853333,154.057394 C9.74020556,140.438173 104.279668,122.831876 258.251835,69.7761287 C338.258916,42.1429268 448.436485,17.1546171 562.523581,45.182579 C683.481967,75.6975291 802.228903,167.242379 929.110814,275.327675 C1057.65131,162.071023 1176.31927,62.8283522 1301.54259,22.6812575 C1410.85138,0.92998003 1523.91173,29.2737499 1613.51492,59.117608 C1778.10994,115.015628 1889.35375,138.069613 1896.42249,145.964814 C1910.87589,152.71521 1825.49814,147.030666 1661.41649,119.121132 Z" id="路径" stroke="#E40C8F"></path>
                <path d="M1665.93744,122.915741 C1590.27247,110.820253 1480.92159,102.914706 1364.42282,131.849009 C1245.94949,160.585673 1124.1984,228.494325 996.326187,300 C867.269242,222.486109 744.056981,149.320269 621.753016,114.219639 C508.768952,105.049204 399.141632,127.145208 311.273914,143.470164 C140.435375,174.064632 36.4947756,170.42808 27.9252049,158.72787 C11.4179212,144.300246 102.286964,126.631348 253.498421,74.3756801 C332.046238,46.7062646 442.14745,22.3967066 557.343016,50.6590382 C677.632935,80.9768121 796.224736,171.218635 922.833233,277.113441 C1051.25832,165.131363 1170.00809,66.2724941 1295.31338,25.4798701 C1404.98019,5.71600184 1518.24069,34.7293604 1608.39889,64.5728015 C1772.05005,119.911633 1883.25701,142.402915 1891.70811,149.99224 C1909.0842,155.881873 1827.06116,150.34799 1665.93744,122.915741 Z" id="路径" stroke="#E10C91"></path>
                <path d="M1670.4337,126.990932 C1596.20573,115.133146 1486.79845,107.781319 1369.37613,137.46531 C1251.48001,166.240203 1129.83301,233.315745 1002.50046,303 C873.549115,226.201074 750.441246,152.524698 628.04407,115.963191 C514.806941,109.04615 405.123278,132.524565 316.523516,149.125466 C146.707305,179.679027 42.7881545,175.64738 32.6015509,163.63149 C13.5312812,148.413999 100.670174,130.62732 249.126103,79.2435811 C326.236324,52.0497255 436.156884,27.8598424 552.513167,56.1999506 C672.107053,86.2001488 790.279552,175.094017 916.625024,278.572961 C1044.86568,168.335079 1163.70939,69.9945081 1289.06779,28.4922577 C1399.10679,10.3893713 1512.50186,40.3500435 1603.19421,70.1921379 C1765.86401,125.093686 1877.00854,146.872486 1886.80032,154.06621 C1907.29197,159.283636 1828.6814,153.591898 1670.4337,126.990932 Z" id="路径" stroke="#DD0C92"></path>
                <path d="M1674.50419,132.048587 C1601.60987,120.624964 1492.18942,113.905185 1373.76577,144.104661 C1256.44778,172.881125 1135.10204,239.209292 1007.95161,307 C879.063719,230.987445 756.020009,156.793184 633.48964,118.60903 C519.962468,114.063298 410.107654,138.926479 320.825938,155.804981 C152.252896,186.320682 48.044825,181.97259 36.4354378,169.481707 C14.6382209,153.670463 98.0757558,135.76423 243.785412,85.1287216 C319.483356,58.2496071 429.377658,34.6513258 546.774625,62.8743959 C665.7511,92.5995342 783.937822,180.07524 910.061573,281.267201 C1038.15971,172.5649 1156.93875,74.7328288 1282.50967,32.4772797 C1393.07526,16.2707549 1506.52346,47.0631521 1597.81905,76.8278186 C1759.71867,131.218497 1870.63965,152.366036 1881.85416,159.125342 C1905.11242,163.671075 1829.76987,157.979027 1674.50419,132.048587 Z" id="路径" stroke="#DA0C94"></path>
                <path d="M1679.66199,137.204871 C1608.14148,126.179669 1498.6294,120.054556 1379.24425,150.798669 C1262.50509,179.606457 1141.30329,245.204436 1014.53309,311 C885.669795,235.917975 762.730342,161.033535 640.067335,121.319096 C526.250598,119.106152 416.185626,145.345343 326.222223,162.535175 C158.774976,192.963154 54.4363846,188.063064 41.4039338,175.41767 C16.8397385,158.662524 96.6931192,140.919456 239.536679,91.0491846 C313.821649,64.5333748 423.53119,41.3369809 542.165985,69.6310491 C660.484842,98.9920725 778.369283,185.138817 904.310149,283.930954 C1032.34411,176.840277 1151.37382,79.5892966 1276.91977,36.5554414 C1387.6956,22.2503399 1501.47284,53.7847902 1593.37137,83.5409821 C1754.14442,137.362939 1865.23619,157.911703 1877.71575,164.273917 C1903.89913,168.146569 1831.9837,162.456142 1679.66199,137.204871 Z" id="路径" stroke="#D60C96"></path>
                <path d="M1683.53769,142.398736 C1583.49502,127.404459 1481.46503,132.546343 1383.43662,157.522571 C1267.26592,186.34868 1146.2778,250.990243 1019.87997,315 C891.152406,240.565458 768.308403,165.34116 645.503886,124.155363 C531.425993,124.155363 421.178337,151.796837 330.595198,169.32943 C164.433975,199.695564 59.9514181,194.404196 45.4991824,181.412703 C18.2136772,163.919598 94.2261192,146.110591 234.404908,97.1456935 C307.258391,71.0837319 416.834769,48.1807959 536.598788,76.4935633 C654.23051,105.596087 772.020179,190.218487 897.549298,286.608257 C1025.44764,181.175776 1144.54038,84.4701031 1270.14847,40.7570856 C1381.30432,28.2789343 1495.22427,60.5009959 1587.6633,90.3537883 C1747.46712,143.583371 1858.50451,163.485232 1872.44342,169.32943 C1901.54532,172.606919 1832.91695,166.920673 1683.53769,142.398736 Z" id="路径" stroke="#D30C98"></path>
                <path d="M1688.36915,148.576887 C1588.4098,134.245436 1486.59759,139.919541 1388.85148,165.269331 C1273.30011,194.076622 1152.45873,257.926207 1026.48523,320 C897.866729,246.363828 775.13041,170.675631 652.07827,127.938238 C537.592801,130.424347 427.370928,159.507872 336.256286,177.107943 C171.160344,207.414792 66.6232673,201.732258 50.7532127,188.394088 C20.6711687,170.162624 92.9549252,152.404705 230.376966,104.142627 C301.792212,78.2949886 411.224529,55.9989345 532.065916,84.4116052 C648.999005,113.218896 766.603217,196.404882 891.826633,290.364006 C1019.53715,186.539372 1138.72047,90.4887598 1264.37814,46.0150377 C1375.8633,35.4392103 1489.95399,68.508402 1582.96357,98.2233202 C1741.66411,150.786761 1852.71502,170.162624 1867.99291,175.608386 C1900.08832,178.055032 1834.79212,172.41196 1688.36915,148.576887 Z" id="路径" stroke="#CF0D99"></path>
                <path d="M1692.92977,154.405281 C1592.957,140.689394 1491.26077,146.907582 1393.69949,172.701634 C1278.72937,201.469981 1158.0739,264.697118 1032.44378,325 C903.892014,252.012174 781.222997,175.704923 658.198646,131.366893 C543.702299,136.187963 433.154102,166.616022 341.083246,184.635756 C177.116581,214.905748 72.6090533,208.741102 55.1187493,195.107751 C22.3096236,176.060576 90.8889873,158.277943 225.599862,110.580972 C322.121994,75.4321905 426.70954,68.8201507 526.883181,91.5337971 C643.195677,120.10456 760.613655,202.181287 885.572599,293.742084 C1013.1768,191.353639 1132.45041,95.643561 1258.19899,50.3966412 C1370.08955,41.6633929 1484.34901,75.568945 1577.99913,105.285699 C1735.92512,157.487604 1846.78917,176.179127 1863.48985,181.316331 C1898.35201,183.292179 1836.44502,177.759805 1692.92977,154.405281 Z" id="路径" stroke="#CC0D9B"></path>
                <path d="M1697.47864,160.705714 C1631.45768,151.269769 1521.80444,147.677003 1398.60743,180.446186 C1284.09739,209.306756 1163.66442,271.607685 1038.41413,330 C909.925963,257.789354 787.321248,181.0384 664.203211,135.161544 C549.258822,142.386557 438.460487,174.168716 345.904785,192.487874 C183.024125,222.690796 78.1882084,216.097478 59.6296846,202.160705 C24.0920859,182.420233 88.9284604,164.614328 220.89141,117.868891 C317.317825,83.1167216 421.697762,76.7856966 521.618468,99.6286947 C637.273609,127.89705 754.587171,208.319732 879.166197,297.665107 C1006.70669,196.90974 1126.07354,101.839628 1251.91612,55.8838094 C1364.17545,49.0141252 1478.60651,83.5204698 1572.82064,113.328582 C1729.89682,164.969656 1840.65567,183.012447 1858.70088,187.750161 C1896.64713,188.895108 1838.04958,183.209852 1697.47864,160.705714 Z" id="路径" stroke="#C80D9D"></path>
                <path d="M1701.76496,167.527364 C1637.06905,158.47522 1527.38619,155.471016 1403.16846,188.912557 C1289.29893,217.847792 1168.83341,279.433988 1044.02324,336 C915.53985,264.571081 793.020494,187.133752 669.711201,139.580354 C554.49877,149.146374 443.512507,182.350742 350.22085,200.929376 C188.283598,231.129539 83.4588495,224.132904 63.3154351,209.823403 C24.9639541,189.22879 86.1841349,171.480264 215.378465,125.468498 C311.84166,90.948773 416.181914,84.8844063 515.989301,107.996676 C631.004248,136.022743 748.112529,215.159819 872.606729,302.202697 C1000.0237,202.945356 1119.54129,108.273379 1245.49688,61.4710324 C1358.14201,56.4903772 1472.80148,91.9874273 1567.59402,121.673713 C1661.23857,152.465424 1756.87159,176.832254 1853.82799,194.604735 C1894.70727,195.079083 1839.45112,189.465964 1701.76496,167.527364 Z" id="路径" stroke="#C40D9F"></path>
                <path d="M1707.00188,174.995163 C1643.82716,166.400486 1534.0216,164.034978 1408.89617,197.901162 C1295.61599,226.79978 1175.46557,287.396199 1050.97188,342 C922.608748,271.389598 800.247209,193.722098 676.819597,144.874366 C561.367793,156.583629 450.219768,191.12004 356.365822,209.925825 C195.744092,240.007197 90.6766337,232.595273 69.11826,217.810851 C28.054691,196.521282 85.5042034,178.779975 211.932615,133.67763 C277.673809,109.115776 386.61072,88.5358603 512.012542,117.040227 C626.516725,144.637816 743.232023,222.226465 867.370351,306.753937 C994.548962,209.531574 1114.10712,115.581497 1240.10121,68.1924949 C1353.10499,65.0384848 1467.88556,101.270176 1563.20042,130.839021 C1656.82702,161.667075 1752.63326,185.45431 1849.81624,202.001375 C1893.60422,201.646549 1841.68249,196.127031 1707.00188,174.995163 Z" id="路径" stroke="#C10DA1"></path>
                <path d="M1711.10343,181.905832 C1649.1888,173.695854 1539.45618,171.919657 1413.33672,206.377882 C1300.64263,235.310159 1180.68304,295.22721 1056.49841,348 C928.444118,278.096775 806.036376,199.786217 682.404556,149.184334 C566.67001,163.393911 455.31845,199.352035 360.748598,218.495493 C201.302642,248.572431 96.1109558,240.678222 73.0904029,225.758166 C29.2605339,203.69385 83.0409678,185.931879 206.712274,141.526951 C270.996082,117.252257 379.820514,97.0825512 506.374325,125.738532 C620.05558,153.091968 736.777285,229.31056 860.606537,311.726107 C987.752644,215.73252 1107.39634,122.26508 1233.43683,74.0314595 C1346.84168,72.768386 1461.7865,109.792229 1557.73837,139.395514 C1711.73521,189.36586 1822.53396,205.391105 1844.52787,209.101384 C1891.43767,208.075137 1842.86944,202.351835 1711.10343,181.905832 Z" id="路径" stroke="#BD0DA2"></path>
                <path d="M1714.92819,189.850396 C1654.4094,181.959827 1544.66234,180.934053 1417.62421,215.889273 C1305.50851,245.084377 1185.73421,304.263643 1062.17008,355 C934.026582,285.839165 811.844161,207.051836 688.201078,154.934629 C572.019215,171.465371 460.49568,208.787761 365.315772,228.19856 C207.011569,258.182721 101.725457,249.897624 77.1310635,234.668826 C30.7056913,211.82563 80.7629803,194.07185 201.563694,150.397552 C264.727465,126.725846 373.211243,106.999424 500.84154,135.444924 C613.865214,162.549028 730.560282,237.193808 853.848069,317.243629 C980.846727,222.832973 1100.58155,129.921526 1226.67223,81 C1340.4065,81.5917927 1455.6409,119.387617 1552.00513,148.937797 C1705.01937,198.37221 1815.75336,213.916631 1839.28186,217.033405 C1888.94438,215.494744 1843.82176,209.813535 1714.92819,189.850396 Z" id="路径" stroke="#BA0DA4"></path>
                <path d="M1720.58259,198.042063 C1661.35067,190.661193 1551.57417,190.148084 1423.55424,225.670988 C1312.00078,254.64189 1192.39178,312.978392 1068.95245,362 C940.853542,293.598675 818.717314,214.264189 694.922592,160.703544 C578.63058,179.609623 466.919171,218.329588 371.121405,238.064535 C213.801414,267.903774 108.368589,259.220398 82.5039817,243.66926 C33.1835327,219.987324 79.5028976,202.265341 197.690331,159.401037 C259.173068,135.719101 367.725442,116.497263 496.574621,145.191876 C609.036301,171.991933 725.249337,245.405935 848.530716,323.043215 C975.444986,230.170556 1095.29091,137.732066 1221.4944,88 C1335.61457,90.4866033 1450.95887,129.088159 1548.02025,158.611639 C1700.12784,207.554307 1810.85205,222.473927 1835.76894,225.197349 C1888.44587,222.987035 1846.50967,217.303371 1720.58259,198.042063 Z" id="路径" stroke="#B60DA6"></path>
                <path d="M1725.08927,206.271838 C1667.27705,199.292704 1557.41802,199.371564 1428.44621,235.410707 C1317.48148,264.352425 1197.98709,321.84156 1074.97815,369 C946.914588,301.37732 824.85339,221.76788 700.975688,166.565693 C584.364004,187.581954 472.451538,227.64297 376.018848,247.634048 C219.838959,277.482659 114.244769,268.374298 86.9577142,252.523385 C34.8714252,228.155562 77.5197892,210.412002 192.946797,168.379479 C252.97042,145.07627 361.447324,126.228666 491.406366,154.933803 C603.121387,181.430853 719.2592,253.509138 842.268139,328.426392 C969.068043,237.224493 1088.99682,145.391711 1215.28337,95 C1329.80212,99.2978846 1445.26862,138.688588 1543.04394,168.142898 C1694.16921,216.484242 1804.85751,230.797381 1831.31529,233.123759 C1886.60021,230.363649 1848.09821,224.68571 1725.08927,206.271838 Z" id="路径" stroke="#B30DA8"></path>
                <path d="M1729.52104,214.243341 C1673.09148,207.694168 1563.2335,208.40432 1433.35467,244.977106 C1322.98333,273.974946 1203.68752,330.708135 1080.99566,376 C953.051788,308.930166 831.11022,228.761987 707.075743,171.910439 C590.188747,195.582145 478.040414,237.007631 380.897843,257.24694 C225.943597,287.112743 120.271434,277.565155 91.5630407,261.192225 C36.7130283,236.060763 75.7675007,218.306983 188.310723,176.999856 C246.912176,154.038301 355.26958,135.57437 486.372561,164.335493 C597.415207,190.611087 713.35447,261.231677 836.085815,333.982721 C962.647579,244.543125 1082.81215,153.170338 1209.17647,102 C1324.04953,108.194096 1439.71237,148.357091 1537.96063,177.828366 C1688.01826,225.684665 1798.82397,239.374802 1826.46617,241.268539 C1884.75171,237.717783 1849.60663,232.036573 1729.52104,214.243341 Z" id="路径" stroke="#AF0DA9"></path>
                <path d="M1733.82881,222.292255 C1678.85083,216.09905 1568.81589,217.321912 1437.92723,254.560035 C1328.05027,283.593147 1208.85233,339.60812 1086.41575,383 C958.489266,316.847106 836.605621,235.98042 712.431228,177.598618 C595.247569,203.515405 482.961373,246.394472 385.091098,266.946444 C231.255455,296.729053 125.407053,286.670026 95.2718554,270.220559 C37.8056524,244.264325 73.0752876,226.513101 182.991743,186.000864 C240.181476,163.358192 348.399618,145.330838 480.670624,174.166715 C591.258506,200.122948 706.901834,269.352721 829.338418,339.844803 C956.08003,251.719839 1076.06788,160.912468 1202.53302,109 C1317.7814,116.889433 1433.6222,157.993377 1532.47987,187.420962 C1681.69452,234.757558 1792.36139,247.81457 1821.39071,249.313562 C1882.76699,244.934927 1850.97297,239.372876 1733.82881,222.292255 Z" id="路径" stroke="#AC0DAB"></path>
                <path d="M1737.92007,230.350806 C1684.26841,224.589862 1574.32,226.404954 1442.46088,264.206221 C1333.26257,293.247696 1214.35248,348.410714 1092.44201,390 C964.649192,324.577765 842.936111,243.174827 718.696387,183.197869 C601.286493,211.450173 488.850926,255.722638 390.351367,276.596198 C237.726401,306.308468 131.804832,295.930876 100.261286,279.082085 C40.0956239,252.408122 71.4022971,234.612327 178.547708,194.838134 C234.331226,172.544067 342.34517,154.945565 475.704491,183.789747 C585.416023,209.477247 700.970415,277.385369 823.117763,345.5697 C949.449861,258.997696 1069.66275,168.677131 1196.15276,116 C1311.74663,125.90409 1427.73529,167.65121 1527.10338,197.08727 C1675.30673,243.845622 1785.88679,256.275058 1816.24597,257.419355 C1880.55691,252.408122 1852.17166,246.765553 1737.92007,230.350806 Z" id="路径" stroke="#A80DAD"></path>
                <path d="M1742.78753,239.370498 C1690.45487,234.002593 1580.45755,236.568136 1447.55235,274.893402 C1339.09539,303.864304 1220.0929,358.253817 1098.52315,398 C970.752474,333.308845 849.064235,251.329876 724.611252,189.677903 C606.872648,220.42495 494.229072,266.091616 395.132743,287.208009 C243.585267,316.928839 137.498085,306.114088 104.518637,288.944685 C41.3244851,261.315759 69.2089047,243.712187 173.637241,204.676462 C227.984211,182.691731 335.967218,165.482858 470.491769,194.41429 C579.580674,219.832901 695.02849,286.339672 816.91421,352.293863 C943.302514,267.236243 1063.56888,177.442236 1190.15467,124 C1306.19493,135.840968 1422.39318,178.310573 1522.39792,207.755114 C1669.67979,253.974359 1780.26956,265.815327 1812.02462,266.525785 C1879.2079,260.723711 1854.08823,255.118986 1742.78753,239.370498 Z" id="路径" stroke="#A50DAF"></path>
                <path d="M1747.63181,248.543701 C1696.69751,243.572642 1586.65574,246.768323 1452.88412,285.511015 C1344.81654,314.587761 1226.24624,368.361987 1105.06999,406 C977.418378,342.125846 855.847293,259.669402 731.472847,196.584305 C613.336866,229.606335 500.531218,276.55522 400.715789,297.978114 C250.32142,327.607199 144.070108,316.363139 109.758554,298.885529 C43.8993238,270.637293 68.1424697,252.922966 169.616224,214.693161 C222.524718,192.994096 330.355389,176.266091 465.98276,205.224478 C574.366206,230.316487 689.580375,295.413679 811.190944,358.893305 C937.342168,275.45054 1057.72873,186.208207 1184.35377,132 C1300.71297,145.650684 1417.03269,188.969906 1517.59831,218.362275 C1663.68893,264.048668 1774.24399,275.292729 1807.52896,275.568898 C1877.69195,269.295896 1855.93629,263.614687 1747.63181,248.543701 Z" id="路径" stroke="#A10DB0"></path>
                <path d="M1752.16069,256.490569 C1702.76501,252.07185 1592.52302,255.859323 1457.95831,295.114903 C1350.48026,324.231102 1232.06489,377.019006 1111.28042,413 C983.704538,349.87545 862.209339,267.024478 737.555343,202.242909 C619.297909,237.750468 506.291975,285.961843 405.88174,307.660907 C256.628618,337.25054 150.335126,325.572498 114.522274,307.660907 C45.621031,278.781425 65.9952666,261.027646 164.905073,223.547444 C216.235512,202.203456 324.108403,185.869978 461.042219,214.907271 C568.796655,239.72311 683.816322,303.439453 805.153582,364.551908 C931.150066,282.687257 1051.65814,193.957811 1178.36536,139 C1295.08288,154.504968 1411.60297,198.6527 1512.72394,228.005616 C1658.06805,273.139669 1768.54694,283.752484 1803.05679,283.634125 C1875.9855,276.690425 1857.54603,271.009215 1752.16069,256.490569 Z" id="路径" stroke="#9D0DB2"></path>
                <path d="M1756.6563,265.696516 C1708.45241,261.515117 1598.38488,265.933199 1462.656,305.735387 C1355.78627,334.886841 1237.62555,386.878203 1117.13556,421 C989.657792,358.594587 868.417705,275.045494 743.545547,208.8926 C625.108471,246.525194 511.843147,296.346962 410.697884,318.319033 C262.61206,347.864958 156.176607,335.754679 118.947886,317.648431 C47.6092872,287.865822 64.3089149,270.114598 160.400863,233.428736 C210.460267,212.403398 318.001132,196.506191 455.901368,225.539303 C562.968485,250.075439 677.773491,312.323064 798.816183,371.138785 C924.675316,290.863807 1045.24426,202.659948 1172.01141,147 C1289.1062,164.356752 1405.76672,209.247625 1507.58313,238.596314 C1651.95792,283.211057 1762.38076,293.191189 1798.22771,292.638929 C1874.14588,285.065073 1859.06489,279.384682 1756.6563,265.696516 Z" id="路径" stroke="#9A0DB4"></path>
                <path d="M1760.92166,274.778834 C1714.0879,270.833549 1603.95352,276.041325 1467.24315,316.401584 C1360.89971,345.557235 1242.82807,396.767027 1122.74251,429 C995.312015,367.374658 873.962807,283.340101 749.099091,215.560115 C630.277169,255.565299 516.904706,306.77509 415.062985,329.026494 C268.085519,358.497768 161.505137,345.991217 122.845562,327.527286 C48.7250073,296.990785 61.6773472,279.237005 155.068456,243.334917 C203.718708,222.622174 311.167845,207.156659 450.247543,236.272858 C556.867413,260.536357 671.385052,321.451548 792.102439,377.869114 C917.874398,298.963427 1038.5523,211.417567 1165.46943,155 C1282.94873,174.252988 1399.79621,219.939381 1502.1118,249.252844 C1645.53527,293.32167 1755.94607,302.711447 1793.22354,301.764579 C1872.20122,293.479482 1860.35457,287.798272 1760.92166,274.778834 Z" id="路径" stroke="#960DB6"></path>
                <path d="M1765.09469,283.804608 C1719.64301,280.451116 1609.46908,286.092873 1471.77142,326.966019 C1366.02025,356.161123 1248.1065,406.581857 1128.41576,437 C1000.9852,376.084809 879.754396,291.537365 754.732658,222.179266 C635.713228,264.709431 522.064282,317.102808 419.590685,339.669834 C273.718828,369.101656 166.861967,356.161123 126.938727,337.381569 C50.0539127,306.056012 59.1758399,288.381138 150.000223,253.189201 C197.386858,232.792081 304.559629,217.681641 444.74509,246.916199 C550.496263,270.864075 665.013964,330.398416 785.494482,384.488265 C911.148042,307.318503 1031.90498,220.167171 1158.90116,163 C1276.69644,184.067819 1393.89938,230.543269 1496.57042,259.856731 C1639.04624,303.25486 1749.29914,312.131749 1788.03772,310.829806 C1869.9771,301.834557 1861.60547,296.271706 1765.09469,283.804608 Z" id="路径" stroke="#930DB8"></path>
                <path d="M1769.94217,292.869834 C1725.95439,289.910871 1615.66905,296.302232 1477.19047,337.609359 C1372.03835,366.804464 1254.29009,416.515047 1134.96238,445 C1007.69791,384.834413 886.553825,299.734629 761.42162,228.837869 C642.054421,273.537941 528.452227,327.469978 425.155967,350.352628 C280.478025,379.705544 173.627995,366.370482 132.127854,347.275306 C52.4839103,315.200144 58.051484,297.446364 145.948072,263.043485 C191.712738,243.00144 298.918145,228.364435 440.239748,257.598992 C545.352379,281.270698 659.625841,339.42419 779.822253,391.146868 C905.349321,315.55522 1026.17752,228.916775 1153.24455,171 C1271.42716,193.922102 1388.6621,241.186609 1492.07682,270.460619 C1633.59585,313.503672 1743.92068,321.749316 1783.88085,319.895032 C1868.61853,310.229086 1863.60377,304.547876 1769.94217,292.869834 Z" id="路径" stroke="#8F0DB9"></path>
                <path d="M1774.73184,301.974514 C1732.00275,299.410079 1621.74433,306.314327 1482.14421,348.2527 C1377.53297,377.487257 1260.1267,426.527142 1140.98284,453 C1013.78284,393.584017 892.861887,308.168611 767.438978,235.535925 C647.781732,282.563715 533.850658,338.113319 430.029239,361.035421 C286.440543,390.388337 179.499347,376.579842 136.533313,357.090137 C54.1554202,324.304824 56.0114897,306.590497 141.153741,272.976674 C185.501955,253.250252 292.601114,239.007775 435.044575,268.281785 C539.537339,291.677322 653.665867,348.449964 773.59955,397.844924 C899.022459,323.791937 1019.94341,237.666379 1147.10392,179 C1265.57644,203.815839 1383.10118,251.869402 1487.12005,281.143413 C1627.66795,323.594672 1737.96587,331.130166 1779.35227,328.960259 C1867.14041,318.663067 1865.4423,312.981857 1774.73184,301.974514 Z" id="路径" stroke="#8C0DBB"></path>
                <path d="M1779.35062,311.039741 C1737.96316,308.869834 1627.66242,316.405328 1487.11092,358.89604 C1383.08938,388.130598 1265.68011,436.184161 1147.08608,461 C1019.92231,402.333621 898.998266,316.050252 773.572146,242.155076 C653.635393,291.550036 539.503943,348.322678 435.008504,371.718215 C292.561396,400.992225 185.459496,386.789201 141.110147,367.023326 C55.965715,333.409503 54.2280735,315.734629 136.4896,282.830958 C179.456734,263.420158 286.558635,249.611663 429.993039,278.885673 C533.817116,302.00504 647.751108,357.357379 767.411417,404.385169 C892.837537,331.831389 1013.76159,246.415983 1140.96484,187 C1259.95379,213.670122 1377.52103,262.512743 1482.13494,291.7473 C1621.73864,333.685673 1731.99989,340.589921 1774.73007,338.025486 C1865.44285,327.018143 1867.141,321.336933 1779.35062,311.039741 Z" id="路径" stroke="#880EBD"></path>
                <path d="M1783.77907,319.94021 C1743.82128,318.203285 1633.50303,326.335254 1491.99242,369.403112 C1388.58387,398.89137 1271.35592,446.262066 1153.18035,469 C1026.12089,411.089324 905.299897,324.361475 779.780309,248.884167 C659.551576,300.636652 545.284924,358.823657 440.218041,382.509004 C298.90486,411.760409 191.705842,397.114969 145.943903,377.061374 C58.0525536,342.638669 52.4853118,324.874658 132.124509,292.781011 C173.622177,273.674831 280.465839,260.332085 425.135159,289.701916 C528.267327,312.558277 642.020687,366.56087 761.380772,411.286702 C886.50552,340.230658 1007.64238,255.200259 1134.89927,195 C1254.21987,223.58032 1371.80318,273.240599 1477.10696,302.452528 C1615.73523,343.901887 1725.85607,350.178505 1769.99916,347.217836 C1863.61569,335.375162 1868.63015,329.690679 1783.77907,319.94021 Z" id="路径" stroke="#850EBF"></path>
                <path d="M1788.07105,329.170194 C1749.29313,327.947156 1639.08011,336.587329 1496.56532,380.143269 C1393.6972,409.456731 1276.65263,455.932181 1158.81829,477 C1031.82257,419.832829 911.066061,332.681497 785.412953,255.511735 C664.932867,309.601584 550.415578,369.135925 444.664785,393.083801 C304.519316,422.278906 197.386418,407.207919 149.999954,386.810799 C59.1758967,351.618862 50.0540023,333.943988 126.938541,302.618431 C167.019592,283.838877 273.718114,271.056156 419.589448,300.330166 C522.26012,322.897192 635.632237,375.290569 754.730217,417.820734 C879.751506,348.462635 1000.98188,263.954644 1128.333,203 C1248.02331,233.260331 1365.93663,283.838877 1471.68742,313.033981 C1609.38459,353.907127 1719.55812,359.509431 1765.08862,356.195392 C1861.59905,343.728294 1869.97066,338.165443 1788.07105,329.170194 Z" id="路径" stroke="#810EC0"></path>
                <path d="M1793.22354,338.235421 C1755.98556,337.288553 1645.57476,346.67833 1502.15129,390.747156 C1399.8357,420.060619 1282.98822,465.707559 1165.50892,485 C1038.59178,428.582433 917.913887,340.878762 792.141928,262.130886 C671.345564,318.548452 556.669969,379.463643 450.247543,403.727142 C311.167845,432.843341 203.718708,417.377826 155.068456,396.665083 C61.6773472,360.762995 48.7250073,343.009215 122.845562,312.472714 C161.505137,294.008783 268.085519,281.502232 415.062985,310.973506 C516.904706,333.22491 630.277169,384.434701 749.099091,424.439885 C874.002296,356.659899 995.312015,272.625342 1122.74251,211 C1242.82807,243.232973 1360.89971,294.442765 1467.24315,323.598416 C1603.95352,363.958675 1714.24585,369.008639 1760.92166,365.221166 C1860.35457,352.201728 1872.20122,346.520518 1793.22354,338.235421 Z" id="路径" stroke="#7E0EC2"></path>
                <path d="M1797.13166,347.340101 C1761.28424,346.787761 1650.85997,356.808783 1506.4833,401.390497 C1404.78401,430.743413 1288.12197,475.640749 1170.90723,493 C1044.25687,437.332037 923.686356,349.115479 797.825588,268.9473 C676.781323,327.692585 561.974825,390.028078 454.906317,414.567747 C317.00429,443.644492 209.462027,427.744996 159.401972,406.677178 C63.308776,369.907127 46.6089313,352.153348 117.948457,322.366451 C155.177662,304.257595 261.614497,292.145572 409.702246,321.695752 C510.848823,343.670986 624.03666,393.499928 742.554234,431.137941 C867.270096,364.936069 988.669676,281.414399 1116.14911,219 C1236.5617,253.12671 1354.80291,305.125558 1461.67403,334.28121 C1597.40468,374.089129 1707.47363,378.507847 1755.67815,374.325846 C1858.08807,360.635709 1873.16925,354.9545 1797.13166,347.340101 Z" id="路径" stroke="#7A0EC4"></path>
                <path d="M1802.90547,356.428325 C1768.39481,356.428325 1657.91331,366.91825 1512.56578,412.032815 C1411.44243,441.412493 1294.9196,485.501727 1178.19933,501 C1051.48913,446.065918 930.978216,357.374784 804.978765,275.545481 C683.638648,336.631549 568.616272,400.32038 460.859298,425.125504 C324.119687,454.150259 216.4022,437.823834 164.912609,416.489062 C66.1979024,379.025043 45.6257576,361.278929 114.252221,332.29361 C150.065917,314.50806 256.401399,302.83506 405.618549,332.29361 C506.11012,353.983305 619.118716,402.371042 737.299962,437.666091 C861.956893,373.0308 983.454954,290.097294 1111.03384,227 C1231.82115,262.965458 1350.23932,315.73057 1457.71989,344.834197 C1592.48521,384.270006 1702.53236,387.858664 1752.12663,383.323546 C1857.59342,369.047784 1876.03333,363.369027 1802.90547,356.428325 Z" id="路径" stroke="#770EC6"></path>
                <path d="M1807.52008,364.431102 C1774.39322,364.707271 1663.87821,375.951332 1517.59092,421.637725 C1417.02581,451.030094 1300.70668,494.349316 1184.34808,508 C1057.72369,453.791793 937.337742,364.54946 811.187164,281.106695 C689.577218,344.586321 574.284671,409.683513 465.980748,434.972786 C330.354071,463.931174 222.523953,447.203168 169.615729,425.504104 C68.1424946,387.077034 43.8994728,369.362707 109.758366,341.114471 C144.148711,323.636861 250.320512,312.392801 400.714111,342.021886 C500.529028,363.44478 613.334099,410.393665 731.469476,443.415695 C856.001219,380.291145 977.571682,297.874154 1105.22264,234 C1226.39827,271.835277 1344.96797,325.412239 1453.03499,354.488985 C1586.80593,393.231677 1696.84714,396.427358 1747.78117,391.456299 C1855.92716,376.385313 1877.68271,370.704104 1807.52008,364.431102 Z" id="路径" stroke="#730EC8"></path>
                <path d="M1811.93745,373.535781 C1780.34164,374.245932 1669.7563,386.081785 1522.32234,432.281066 C1422.3216,461.712887 1306.128,504.243053 1190.09239,516 C1063.70914,462.58085 943.171122,372.82563 816.866866,287.804752 C694.986025,353.612095 579.542829,420.090137 470.458291,445.616127 C335.939125,474.535061 227.96044,457.45198 173.615645,435.358387 C69.1914885,396.221166 41.3476798,378.467387 104.499808,351.008207 C137.477935,333.885673 243.560872,323.036141 395.102281,352.744132 C494.313129,373.851404 606.952196,419.498344 724.686087,450.113751 C849.134089,388.606767 970.817457,306.663211 1098.58302,242 C1220.1479,281.729014 1339.14563,336.095032 1447.59825,365.171778 C1580.49813,403.362131 1690.49105,405.926566 1742.82161,400.679338 C1854.11785,384.819294 1879.23652,379.216991 1811.93745,373.535781 Z" id="路径" stroke="#6F0EC9"></path>
                <path d="M1816.24597,382.601008 C1785.88679,383.705688 1675.30673,396.172786 1527.10338,442.924406 C1427.73529,472.356228 1311.74663,513.939525 1196.15276,524 C1069.82066,471.330454 949.48934,381.022894 823.117763,294.463355 C700.970415,362.598416 585.416023,430.49676 475.704491,456.220014 C342.34517,485.060043 234.331226,467.464075 178.547708,445.173218 C71.4022971,405.365299 40.0956239,387.572066 100.261286,360.901944 C131.844311,344.05558 237.726401,333.679482 390.351367,363.387473 C489.048319,384.258027 601.286493,428.524118 718.696387,456.772354 C842.936111,396.804032 964.649192,315.412815 1092.44201,250 C1214.35248,291.583297 1333.26257,346.738373 1442.46088,375.775666 C1574.32,413.453132 1684.26841,415.22851 1737.92007,409.626206 C1852.17166,393.213823 1880.55691,387.572066 1816.24597,382.601008 Z" id="路径" stroke="#6C0ECB"></path>
                <path d="M1821.38696,390.686438 C1792.35688,392.18543 1681.68711,405.281889 1532.46855,452.579038 C1433.72679,482.006623 1317.76446,522.952779 1202.51307,531 C1076.12361,479.087532 955.895632,388.280161 829.308687,300.155197 C706.868897,370.647279 591.025056,439.877052 480.631762,465.833285 C348.357291,494.669162 240.136315,476.641808 182.945084,453.999136 C73.0257496,413.486899 37.7551906,395.735675 95.3808855,369.818889 C125.516873,353.290527 231.368046,343.310394 385.207718,373.093003 C483.080557,393.644976 595.369694,436.524043 712.556423,462.440829 C836.734068,404.059027 958.620905,323.192341 1086.39275,257 C1208.83254,300.39188 1328.0336,356.406853 1437.91344,385.439965 C1568.88452,422.559747 1678.84335,423.90095 1733.90176,417.707745 C1850.97,400.627124 1882.76485,395.065073 1821.38696,390.686438 Z" id="路径" stroke="#680ECD"></path>
                <path d="M1826.3565,398.791595 C1798.71471,400.684514 1688.14756,414.368739 1537.8552,462.204375 C1439.60838,491.662925 1323.94723,531.808578 1209.07585,538 C1082.71339,486.733448 962.708534,395.518423 836.030161,305.841393 C713.300615,378.679332 597.363052,449.26943 486.322035,475.415371 C355.220976,504.164076 246.865161,485.708117 188.264567,462.756477 C75.6045301,421.624928 36.6690951,403.878814 91.7157446,378.758204 C120.423717,362.550086 225.975865,353.046056 381.046305,382.701785 C478.226939,402.932355 590.33414,444.418826 707.219421,468.001439 C831.25208,411.174439 953.19186,330.843696 1081.13386,264 C1203.82391,309.272309 1323.11798,365.981002 1433.4877,394.966321 C1563.48309,431.523316 1673.33945,432.233161 1729.64973,425.686816 C1849.65458,408.05901 1884.79914,402.380253 1826.3565,398.791595 Z" id="路径" stroke="#650ECF"></path>
                <path d="M1830.15875,406.796688 C1803.85781,409.124406 1693.16481,423.445788 1541.87517,471.814975 C1444.17468,501.286249 1328.6243,540.69964 1214.10068,545 C1087.7298,494.579266 967.874911,402.693593 841.069625,311.439165 C718.055466,386.636285 601.912724,458.677178 490.192963,485.031677 C360.228405,513.753348 251.746898,494.894888 191.720727,471.578258 C76.5257667,429.679338 33.8755928,411.925558 85.9640922,387.543701 C113.252305,371.762563 218.850977,362.57005 374.919021,392.435853 C471.474275,412.438445 583.391491,452.522534 700.008124,473.748164 C823.891083,418.514183 945.95746,338.661627 1073.98696,271 C1197.04061,318.343413 1316.54008,375.707847 1427.50952,404.666235 C1556.4868,440.726134 1666.35049,440.80504 1724.16517,433.821886 C1847.17933,415.397408 1885.68296,409.716199 1830.15875,406.796688 Z" id="路径" stroke="#610ED0"></path>
                <path d="M1835.76894,414.763112 C1810.85205,417.48732 1700.12784,432.411239 1548.02025,481.368012 C1450.95887,510.9 1335.61457,549.51268 1221.4944,552 C1095.13296,502.253602 975.444986,409.867435 848.530716,316.889049 C725.249337,394.548703 609.036301,467.983862 496.574621,494.791643 C367.725442,523.494524 259.173068,504.188184 197.690331,480.578386 C79.5028976,437.701729 33.1835327,419.935159 82.5039817,396.285879 C108.368589,380.730259 213.801414,372.04438 371.002941,401.971182 C466.919171,421.711816 578.63058,460.442939 694.804128,479.354467 C818.59885,425.58098 940.735078,346.223631 1068.83399,278 C1192.39178,326.838329 1311.9218,385.191643 1423.55424,414.289337 C1551.57417,449.822478 1661.39016,449.309222 1720.58259,441.926225 C1846.50967,422.659366 1888.44587,416.974063 1835.76894,414.763112 Z" id="路径" stroke="#5E0ED2"></path>
                <path d="M1839.28492,422.927409 C1815.59861,426.045081 1705.0625,441.59398 1552.00945,491.042633 C1455.52722,520.601325 1340.41175,558.408037 1226.67798,559 C1100.58786,510.064381 980.853557,417.12617 853.855456,322.688319 C730.56821,402.761198 613.873654,477.427481 500.850476,504.539392 C373.22074,533.190408 264.737439,513.260982 201.573944,489.582457 C80.6948066,446.171828 30.6377373,428.215613 77.2208144,405.365836 C101.657191,390.132652 206.942841,381.687311 365.404258,411.837966 C460.583748,431.254357 572.106793,468.587498 688.09076,485.123002 C811.7333,432.990782 933.915185,354.180758 1062.05812,285 C1185.74014,335.672044 1305.51392,394.868357 1417.47121,423.914014 C1544.50879,458.879303 1654.33432,457.734841 1714.77388,449.960392 C1843.8248,430.149359 1888.94722,424.466513 1839.28492,422.927409 Z" id="路径" stroke="#5A0ED4"></path>
                <path d="M1844.52787,430.898616 C1822.37602,434.45101 1711.57727,450.63414 1557.58043,500.604486 C1461.62855,530.207771 1346.68373,567.231614 1233.27888,565.96854 C1107.39634,517.932276 987.673671,424.425364 860.606537,328.273893 C736.777285,410.531556 620.05558,486.750148 506.374325,514.143055 C380.017946,542.759565 270.996082,522.589859 206.712274,498.354636 C83.0409678,454.068121 29.2605339,436.30615 73.0904029,414.241834 C96.1109558,399.321778 201.302642,391.427569 360.748598,421.504507 C455.515882,440.647965 566.67001,476.763973 682.404556,490.815666 C806.036376,440.213783 928.444118,361.903225 1056.49841,292 C1180.68304,344.77279 1300.64263,404.689841 1413.33672,433.622118 C1539.45618,468.080343 1649.1888,466.304146 1711.10343,458.094168 C1842.86944,437.648165 1891.43767,431.924863 1844.52787,430.898616 Z" id="路径" stroke="#570ED6"></path>
                <path d="M1848.81634,438.041551 C1751.64233,454.543159 1655.83993,478.291817 1562.21175,509.088561 C1466.90062,538.691482 1352.12454,574.964928 1239.12518,571.807283 C1113.13603,524.44261 993.582554,430.344792 866.329958,332.773564 C742.235975,417.398448 625.485765,495.037042 510.986066,522.705905 C385.589155,551.243121 276.656511,530.600017 210.917891,506.049328 C84.5733959,460.895006 27.0471681,443.133254 68.1091289,421.819151 C89.706141,407.412396 194.769485,399.99193 355.424407,430.107968 C449.31416,448.935426 560.457833,483.511638 675.905115,495.352806 C799.327893,446.330369 921.68464,368.573363 1050.04275,298 C1174.53156,352.666727 1294.83521,413.33298 1407.95302,442.264901 C1533.07355,476.170113 1642.75636,473.84135 1706.04706,465.197297 C1840.68291,443.922665 1892.6026,438.396786 1848.81634,438.041551 Z" id="路径" stroke="#530ED7"></path>
                <path d="M1853.82799,445.395265 C1756.84492,463.164243 1661.18539,487.531102 1567.51503,518.326287 C1472.72249,548.012573 1358.18151,583.509623 1245.41788,578.528968 C1119.4623,531.726621 999.944705,437.054644 872.527735,337.797303 C748.112529,424.761123 631.004248,503.819141 515.989301,532.003324 C416.181914,555.115594 311.84166,549.051227 215.378465,514.531502 C86.1841349,468.519736 24.9639541,450.77121 63.3154351,430.176597 C83.4588495,415.867096 188.441585,408.870461 350.22085,439.070624 C443.512507,457.649258 554.49877,490.853626 669.711201,500.419646 C793.020494,452.984835 915.53985,375.507977 1044.02324,304 C1168.9519,360.566012 1289.29893,422.152208 1403.16846,451.087443 C1527.38619,484.528984 1637.06905,481.52478 1701.76496,472.472636 C1839.45112,450.534036 1894.70727,444.920917 1853.82799,445.395265 Z" id="路径" stroke="#500ED9"></path>
                <path d="M1858.69972,452.289643 C1840.65466,457.026052 1729.73879,475.063879 1572.86134,526.690746 C1478.648,556.332777 1364.21789,590.987508 1251.95949,584.119714 C1126.11796,538.176539 1006.7521,443.132584 879.212671,342.404937 C754.555709,431.72573 637.322094,512.126286 521.667916,540.386864 C421.685222,563.262288 317.23198,556.932663 220.745931,522.151686 C88.7840785,475.41911 24.1061869,457.657574 59.6434899,437.883063 C78.3598029,423.950124 183.194847,417.358621 346.074153,447.553233 C438.629084,465.86735 549.426498,497.640766 664.369931,504.784851 C787.486943,458.920616 910.090639,382.190778 1038.57773,310 C1163.82698,368.37625 1284.33793,430.660038 1398.76804,459.512667 C1521.96403,492.351775 1631.73481,488.759998 1697.63676,479.247708 C1838.04859,456.828702 1896.64566,451.14501 1858.69972,452.289643 Z" id="路径" stroke="#4C0EDB"></path>
                <path d="M1863.43546,457.992972 C1846.73384,463.118168 1735.78451,481.647723 1577.9285,533.845874 C1484.35202,563.493163 1370.08606,597.319457 1258.11016,588.606624 C1132.35443,543.465473 1013.07403,447.979127 885.462565,345.830026 C760.49651,437.373914 643.07185,519.061655 526.752736,547.56563 C426.626175,570.253433 322.077475,563.711823 225.570724,528.720678 C90.8916675,481.411176 22.3084013,463.551838 55.1193939,444.588613 C72.4132745,430.987131 177.124168,424.87632 341.100164,455.036128 C433.018324,473.013739 543.612295,503.37067 658.233609,508.180469 C781.26496,463.90666 903.940958,387.777785 1032.50003,315 C1158.09783,374.964795 1278.76016,438.044131 1393.73682,466.74523 C1491.30365,492.478986 1593.00567,498.682638 1692.98413,484.998813 C1836.50755,461.698883 1898.41806,456.179441 1863.43546,457.992972 Z" id="路径" stroke="#480EDD"></path>
                <path d="M1867.99364,464.350336 C1852.67627,469.873443 1741.66481,489.164865 1582.92473,541.792181 C1489.91513,571.498604 1375.8244,604.558342 1264.3392,593.985538 C1138.68149,549.52453 1019.57708,453.501377 891.78757,349.706423 C766.564112,443.638686 648.959862,526.800892 532.026734,555.599947 C411.185308,583.925594 301.752955,561.635914 230.337685,535.874567 C92.9550774,487.547384 20.6712972,469.794541 50.753351,451.568289 C66.5444554,438.273383 171.160522,432.553022 336.256518,462.851207 C427.529101,480.564599 537.908921,509.521458 652.078605,512.006856 C774.972875,469.281681 897.709234,393.654572 1026.32778,320 C1152.30131,382.056048 1273.14274,445.88738 1388.69415,474.686436 C1486.44029,500.028978 1588.25254,505.701461 1688.21192,491.374108 C1834.79284,467.545848 1900.08906,461.904389 1867.99364,464.350336 Z" id="路径" stroke="#450EDF"></path>
                <path d="M1872.44301,470.618022 C1858.50411,476.583383 1747.46674,496.494257 1587.66295,549.629428 C1495.22395,579.377222 1381.30403,611.732393 1270.1482,599.248591 C1144.54013,555.515777 1025.32896,458.766311 897.549108,353.286083 C772.020017,449.719505 654.230374,534.380226 536.598678,563.495929 C416.834685,591.940036 307.258332,569.026728 234.404865,542.952964 C94.2261072,493.965892 18.2136821,476.14882 45.4991812,458.647793 C59.9514137,445.650417 164.433947,440.356653 330.713595,470.736539 C421.296714,488.198059 531.544345,515.812546 645.622213,515.931063 C768.426703,474.726615 891.270679,399.46825 1019.99821,325 C1146.35653,389.038745 1267.38411,453.709581 1383.55479,482.548744 C1481.58318,507.536283 1583.61314,512.680495 1683.65579,497.679428 C1832.91655,473.146387 1901.54491,467.457565 1872.44301,470.618022 Z" id="路径" stroke="#410FE0"></path>
                <path d="M1877.74335,475.74474 C1865.18465,482.10605 1754.09148,502.651894 1593.3954,556.466201 C1501.49573,586.218164 1387.71706,617.748132 1276.93984,603.445064 C1151.39232,560.417325 1032.36111,463.180167 904.325555,356.10471 C778.50159,454.882806 660.497193,540.938284 542.176855,570.334646 C423.698545,598.624693 313.829659,575.431596 239.543759,548.919555 C96.5799321,499.056371 16.8440297,481.315825 41.4085325,464.56306 C54.4411466,451.919464 158.781045,447.02007 326.230389,477.443724 C416.194919,494.631113 526.261268,520.906086 640.079431,518.653946 C762.743975,479.142707 885.684967,404.26891 1014.54988,329 C1141.32167,394.865235 1262.52498,460.374869 1379.26561,489.178562 C1498.65225,519.918305 1608.32367,513.794063 1679.68711,502.770428 C1831.93173,477.562257 1903.84807,471.872639 1877.74335,475.74474 Z" id="路径" stroke="#3E0FE2"></path>
                <path d="M1881.85454,480.874658 C1870.64032,487.633964 1759.44585,508.781503 1597.82689,563.172181 C1506.53369,592.936848 1392.97002,623.729245 1282.52579,607.52272 C1157.11611,565.267171 1038.18225,467.4351 910.008501,358.732799 C783.967035,459.92476 665.783418,547.400466 546.731094,577.125604 C429.258237,605.348674 319.445795,581.750393 243.74984,554.871278 C98.0440103,504.23577 14.7271268,486.448121 36.4053112,470.518293 C48.0143935,458.145995 152.219728,453.679318 320.709369,484.195019 C409.98874,501.073521 519.840669,525.936702 633.364858,521.39097 C755.77355,483.246344 878.932488,409.012555 1007.81699,333 C1134.96409,400.790708 1256.30664,467.118875 1373.62155,495.895339 C1492.08157,526.094815 1601.45966,519.375036 1674.35206,507.753772 C1829.77161,482.020973 1905.11219,476.328925 1881.85454,480.874658 Z" id="路径" stroke="#3A0FE4"></path>
                <path d="M1886.84489,485.935996 C1877.05371,493.129826 1765.91596,514.908949 1603.2561,569.81131 C1512.45083,599.61432 1399.18114,629.614963 1289.14885,611.511808 C1163.7981,570.008943 1044.96165,471.666916 916.728821,361.427401 C790.391062,464.947404 671.949413,553.803062 552.48127,583.803705 C436.13209,611.986127 326.21824,587.756359 249.112726,560.759733 C100.66586,509.375233 13.5322866,491.588291 32.601392,476.370574 C42.7873738,464.512612 146.818622,460.322799 316.506024,490.876813 C405.100378,507.477959 514.777345,530.956723 628.007561,524.039579 C750.397265,487.477531 873.497619,413.800064 1002.44109,337 C1129.92379,406.685287 1251.40544,473.761822 1369.29436,502.537142 C1486.70952,532.221572 1596.11012,524.869636 1670.33355,513.011675 C1828.57159,486.331261 1907.17737,480.63944 1886.84489,485.935996 Z" id="路径" stroke="#370FE6"></path>
                <path d="M1891.75572,490.028591 C1883.3053,497.612974 1772.10727,519.971106 1608.46924,575.39241 C1518.31828,605.216419 1405.06686,634.368894 1295.40885,614.459886 C1170.11362,573.693824 1051.37338,474.899325 922.958604,363.148171 C796.360268,468.974025 677.777984,559.157088 557.497719,589.455121 C442.311398,617.541042 332.416461,593.089305 253.677509,565.753922 C102.280747,513.374272 11.4189971,495.716878 27.924956,481.298649 C36.6912787,469.448049 140.623537,465.971874 311.448365,496.54642 C399.427495,512.860746 508.888065,534.942363 621.902549,525.659393 C744.315163,490.700125 867.399072,417.581925 996.44566,340 C1124.30761,411.459115 1246.00944,479.323549 1364.51275,508.041502 C1481.00217,537.154475 1590.34428,529.214573 1666.00317,516.968954 C1826.91653,489.673073 1908.93298,484.142793 1891.75572,490.028591 Z" id="路径" stroke="#330FE7"></path>
                <path d="M1896.42224,494.035186 C1889.35276,501.930387 1777.9393,524.984372 1613.48498,580.882392 C1523.87238,610.72625 1410.80016,639.07002 1301.4799,617.318743 C1176.24343,577.329552 1057.56301,478.086881 929.009021,364.672325 C802.11379,472.757621 683.354388,564.302471 562.383304,594.817421 C448.28423,622.845383 338.095094,598.014977 258.277085,570.223871 C104.249261,517.326028 9.73936701,499.561827 23.2859167,485.942606 C30.5923648,474.573517 134.462411,471.415437 306.420654,502.009339 C393.782077,518.036596 503.102338,538.682545 615.819111,527.0766 C737.975024,493.719378 861.315767,421.162485 990.462174,343 C1118.73971,416.267461 1240.61916,484.876754 1359.69452,513.536332 C1475.25488,542.116957 1584.57514,533.550665 1661.58905,520.878868 C1825.49046,493.127238 1910.87716,487.442694 1896.42224,494.035186 Z" id="路径" stroke="#300FE9"></path>
                <path d="M1901.0013,497.809957 C1895.27578,506.171535 1784.04274,529.757493 1618.47649,586.158698 C1529.47427,616.134164 1416.5828,643.743146 1307.67946,620.078304 C1182.54723,580.87355 1063.96973,481.205127 935.32321,366.470088 C808.177174,476.906014 689.244298,569.672192 567.665837,600.436486 C454.734886,628.40044 344.410034,603.157943 262.989187,575.075664 C106.267878,521.474799 8.02584769,503.568402 18.8056203,490.710505 C24.7285723,479.706354 128.419718,476.945455 301.527862,507.551984 C388.160906,523.328544 497.301168,542.536507 609.521365,528.613692 C731.534176,496.823922 854.929009,424.843363 984.128335,346 C1112.73537,420.938664 1234.78766,490.394974 1354.39181,519.068873 C1468.90221,547.072269 1578.2399,537.882422 1656.6203,524.827318 C1823.80549,496.271743 1912.53131,490.592181 1901.0013,497.809957 Z" id="路径" stroke="#2C0FEB"></path>
                <path d="M1905.45125,500.814532 C1901.10865,509.606493 1789.81957,533.774529 1623.33995,590.705433 C1534.94823,620.511363 1422.27741,647.281504 1313.71233,621.812415 C1188.68483,583.372228 1070.2502,483.191184 941.511745,366.963826 C814.076077,479.603433 695.009789,573.79175 572.785244,604.859307 C461.022425,632.772797 350.601866,607.106579 267.776577,578.680553 C108.324078,524.351754 6.3913345,506.610129 14.4448898,494.545824 C18.9059277,483.821997 122.457278,481.495873 296.63515,512.169172 C382.618696,527.584673 491.539083,545.444575 603.657206,529.161706 C725.526447,498.961517 848.974816,427.561333 978.226483,348 C1107.2018,424.919802 1229.38687,494.979508 1349.55855,523.602664 C1463.13736,551.200747 1572.37358,541.265437 1652.08009,527.821228 C1821.95483,498.606685 1914.01802,492.889939 1905.45125,500.814532 Z" id="路径" stroke="#290FED"></path>
                <path d="M1909.76283,503.231689 C1906.80139,512.438961 1795.25368,537.294644 1627.99134,594.869733 C1540.17467,624.783489 1427.63981,650.824658 1319.4484,623.439938 C1194.47548,585.662461 1076.05722,484.738112 947.175196,366.584704 C819.438261,481.813914 700.151312,577.640674 577.271144,609.056045 C466.710582,636.954475 356.150019,610.834274 271.768619,582.026971 C109.56048,526.86237 3.93565696,509.198633 9.18728367,497.738938 C12.2276991,487.34618 115.799254,485.449403 291.037745,516.232515 C376.366808,531.406732 485.111018,547.845467 596.974615,529.233342 C718.749178,500.544588 842.340092,429.494479 971.656464,349 C1101.01232,428.03238 1223.41866,499.161521 1344.20607,527.652694 C1456.85939,554.602736 1566.03794,544.170461 1647.14201,530.300279 C1820.01135,500.347007 1915.40932,494.617159 1909.76283,503.231689 Z" id="路径" stroke="#250FEE"></path>
                <path d="M1914.94508,506.039116 C1913.36564,515.625504 1801.97548,541.070855 1633.52799,599.102035 C1546.3033,628.965804 1433.92599,654.332255 1326.12907,624.981338 C1201.23469,588.016541 1082.93447,486.90579 953.894054,367.292915 C825.880273,484.696581 706.434965,581.704516 582.725164,613.382992 C473.230341,641.195352 362.51145,614.645397 276.826717,585.570631 C111.853991,529.669759 2.47762641,511.917189 5.0442198,501.383997 C6.66314794,491.324207 109.998147,489.825101 286.461314,520.596223 C371.158896,535.468933 479.706053,550.578343 591.293637,529.590859 C712.950164,502.488602 836.620479,432.109522 966.016272,351 C1095.76744,431.67557 1218.33215,503.356505 1339.67278,531.957869 C1451.37883,558.350023 1560.51827,547.30398 1643.00464,533.062473 C1818.915,502.449151 1917.66962,496.768329 1914.94508,506.039116 Z" id="路径" stroke="#220FF0"></path>
                <path d="M1919,507.312483 C1918.76309,517.356341 1807.37424,543.454554 1637.98107,602.215078 C1551.3102,632.228023 1439.09216,656.665441 1331.65187,625.545299 C1206.83793,589.245056 1088.65756,487.145681 959.500203,365.907616 C831.211526,485.919856 711.570193,584.579012 587.348532,616.608638 C478.960592,644.288561 368.124546,617.399493 281.019338,587.940146 C113.324044,531.038131 0.237318786,513.125266 -2.27373675e-13,503.476836 C-0.236508275,493.828406 103.413161,492.642123 281.019338,523.564552 C365.04467,538.155826 473.43261,551.877159 584.742483,528.507395 C706.239639,502.923238 829.987473,432.893031 959.500203,351 C1089.60522,433.723429 1212.20797,506.402999 1334.25792,535.031949 C1444.81757,560.932449 1554.11368,549.267338 1637.98107,534.557436 C1816.69284,503.081409 1919,497.308167 1919,507.312483 Z" id="路径" stroke="#1E0FF2"></path>
            </g>
        </g>
    </g>
</svg>